<?xml version="1.0" encoding="utf-8"?>
<!-- Generator: Adobe Illustrator 26.3.0, SVG Export Plug-In . SVG Version: 6.00 Build 0)  -->
<svg version="1.1" id="Capa_1" xmlns="http://www.w3.org/2000/svg" xmlns:xlink="http://www.w3.org/1999/xlink" x="0px" y="0px"
	 viewBox="0 0 118 118" style="enable-background:new 0 0 118 118;" xml:space="preserve">
<style type="text/css">
	.st0{fill:#4988D3;}
	.st1{fill:none;stroke:#FFFFFF;stroke-width:2;stroke-miterlimit:10;}
</style>
<circle class="st0" cx="59" cy="59" r="59"/>
<circle class="st1" cx="45.6" cy="45.9" r="11.8"/>
<path class="st1" d="M66.5,49.3v-6.8l5.6-3.3c-0.7-2.7-1.7-5.2-3.1-7.5l-6.3,1.7L58,28.7l1.7-6.3c-2.3-1.4-4.8-2.4-7.5-3.1L49,25
	h-6.8l-3.3-5.6c-2.7,0.7-5.2,1.7-7.5,3.1l1.7,6.3l-4.8,4.8l-6.3-1.7c-1.4,2.3-2.4,4.8-3.1,7.5l5.6,3.3v6.8L19,52.6
	c0.7,2.7,1.7,5.2,3.1,7.5l6.3-1.7l4.8,4.8l-1.7,6.3c2.3,1.4,4.8,2.4,7.5,3.1l3.3-5.6H49l3.3,5.6c2.7-0.7,5.2-1.7,7.5-3.1L58,63.2
	l4.8-4.8l6.3,1.7c1.4-2.3,2.4-4.8,3.1-7.5L66.5,49.3z"/>
<circle class="st1" cx="78.7" cy="76.7" r="7.9"/>
<path class="st1" d="M91.4,83.1l1.4-4.3l4.3-0.9c0.1-1.8,0-3.7-0.4-5.4l-4.4-0.2l-2.1-4l2.4-3.7C91.4,63.2,90,62,88.4,61L85.2,64
	l-4.3-1.4l-0.9-4.3c-1.8-0.1-3.7,0-5.4,0.4l-0.2,4.4l-4,2.1l-3.7-2.4C65.2,64,64,65.4,63.1,67l2.9,3.2l-1.4,4.3l-4.3,0.9
	c-0.1,1.8,0,3.7,0.4,5.4l4.4,0.2l2.1,4l-2.4,3.7c1.2,1.4,2.6,2.5,4.2,3.5l3.2-2.9l4.3,1.4l0.9,4.3c1.8,0.1,3.7,0,5.4-0.4l0.2-4.4
	l4-2.1l3.7,2.4c1.4-1.2,2.5-2.6,3.5-4.1L91.4,83.1z"/>
</svg>
