<?xml version="1.0" encoding="utf-8"?>
<!-- Generator: Adobe Illustrator 27.7.0, SVG Export Plug-In . SVG Version: 6.00 Build 0)  -->
<svg version="1.1" id="Capa_1" xmlns="http://www.w3.org/2000/svg" xmlns:xlink="http://www.w3.org/1999/xlink" x="0px" y="0px"
	 viewBox="0 0 118 118" style="enable-background:new 0 0 118 118;" xml:space="preserve">
<style type="text/css">
	.st0{fill:url(#SVGID_1_);}
	.st1{fill:none;stroke:#FFFFFF;stroke-width:2;stroke-miterlimit:10;}
</style>
<g>
	<linearGradient id="SVGID_1_" gradientUnits="userSpaceOnUse" x1="0" y1="59" x2="118" y2="59">
		<stop  offset="0" style="stop-color:#49E1FF"/>
		<stop  offset="0.0636" style="stop-color:#49D8FA"/>
		<stop  offset="0.3302" style="stop-color:#49B5E9"/>
		<stop  offset="0.5825" style="stop-color:#499CDD"/>
		<stop  offset="0.8125" style="stop-color:#498DD6"/>
		<stop  offset="1" style="stop-color:#4988D3"/>
	</linearGradient>
	<circle class="st0" cx="59" cy="59" r="59"/>
	<circle class="st1" cx="45.57" cy="45.93" r="11.83"/>
	<path class="st1" d="M66.55,49.32v-6.77l5.64-3.26c-0.66-2.67-1.72-5.19-3.1-7.48L62.8,33.5l-4.79-4.79l1.69-6.3
		c-2.3-1.38-4.81-2.43-7.48-3.1l-3.26,5.65h-6.77l-3.26-5.65c-2.67,0.66-5.18,1.72-7.48,3.1l1.69,6.3l-4.79,4.79l-6.29-1.69
		c-1.38,2.3-2.43,4.81-3.1,7.48l5.64,3.26v6.77l-5.64,3.25c0.66,2.67,1.72,5.19,3.1,7.48l6.29-1.68l4.79,4.79l-1.68,6.28
		c2.3,1.38,4.81,2.44,7.48,3.1l3.25-5.63h6.77l3.25,5.63c2.67-0.66,5.19-1.72,7.48-3.1l-1.68-6.28l4.79-4.79l6.29,1.68
		c1.38-2.3,2.44-4.81,3.1-7.48L66.55,49.32z"/>
	<circle class="st1" cx="78.73" cy="76.67" r="7.95"/>
	<path class="st1" d="M91.45,83.15l1.39-4.33l4.28-0.93c0.12-1.84-0.03-3.67-0.45-5.42l-4.37-0.21l-2.08-4.04l2.37-3.68
		c-1.18-1.36-2.58-2.54-4.15-3.52l-3.24,2.94l-4.33-1.39l-0.93-4.28c-1.84-0.12-3.67,0.03-5.42,0.45l-0.21,4.37l-4.04,2.08
		l-3.68-2.37c-1.35,1.19-2.54,2.58-3.52,4.15l2.94,3.24l-1.39,4.33l-4.27,0.92c-0.12,1.84,0.04,3.67,0.45,5.42l4.37,0.21l2.08,4.04
		l-2.37,3.67c1.19,1.36,2.58,2.55,4.15,3.52l3.24-2.94l4.33,1.39l0.92,4.27c1.84,0.12,3.67-0.03,5.42-0.45l0.21-4.36l4.04-2.08
		l3.67,2.37c1.36-1.18,2.55-2.58,3.52-4.15L91.45,83.15z"/>
</g>
</svg>
