<svg width="20" height="21" viewBox="0 0 20 21" fill="none" xmlns="http://www.w3.org/2000/svg">
<path d="M18.0435 10.6613C17.8832 10.4788 17.7947 10.2442 17.7947 10.0013C17.7947 9.75844 17.8832 9.52384 18.0435 9.34134L19.3235 7.90136C19.4645 7.74403 19.5521 7.54606 19.5737 7.33586C19.5952 7.12567 19.5496 6.91404 19.4435 6.73136L17.4435 3.27136C17.3384 3.08888 17.1784 2.94423 16.9862 2.85804C16.7941 2.77185 16.5796 2.74852 16.3735 2.79136L14.4935 3.17136C14.2543 3.22079 14.0052 3.18095 13.7934 3.05936C13.5815 2.93777 13.4215 2.74284 13.3435 2.51136L12.7335 0.68136C12.6664 0.48274 12.5386 0.31022 12.3681 0.1882C12.1976 0.0661797 11.9931 0.000819659 11.7835 0.00135966H7.78345C7.56539 -0.0100203 7.34959 0.0502797 7.16902 0.17307C6.98845 0.29586 6.85303 0.47438 6.78345 0.68136L6.22345 2.51136C6.14545 2.74284 5.98542 2.93777 5.77357 3.05936C5.56171 3.18095 5.31267 3.22079 5.07345 3.17136L3.14345 2.79136C2.948 2.76374 2.74875 2.79458 2.5708 2.88C2.39285 2.96541 2.24415 3.10159 2.14345 3.27136L0.143447 6.73136C0.0346068 6.91201 -0.0143332 7.12244 0.00363681 7.33258C0.0215968 7.54272 0.105537 7.7418 0.243447 7.90136L1.51345 9.34134C1.67377 9.52384 1.76219 9.75844 1.76219 10.0013C1.76219 10.2442 1.67377 10.4788 1.51345 10.6613L0.243447 12.1013C0.105537 12.2609 0.0215968 12.46 0.00363681 12.6701C-0.0143332 12.8802 0.0346068 13.0907 0.143447 13.2713L2.14345 16.7313C2.24855 16.9138 2.40857 17.0584 2.6007 17.1446C2.79284 17.2308 3.00728 17.2542 3.21345 17.2113L5.09345 16.8313C5.33267 16.7819 5.58171 16.8217 5.79357 16.9433C6.00542 17.0649 6.16545 17.2598 6.24345 17.4913L6.85345 19.3213C6.92303 19.5283 7.05845 19.7068 7.23902 19.8296C7.41959 19.9524 7.63539 20.0127 7.85345 20.0013H11.8535C12.0631 20.0019 12.2676 19.9365 12.4381 19.8145C12.6086 19.6925 12.7364 19.5199 12.8035 19.3213L13.4135 17.4913C13.4915 17.2598 13.6515 17.0649 13.8634 16.9433C14.0752 16.8217 14.3243 16.7819 14.5635 16.8313L16.4435 17.2113C16.6496 17.2542 16.8641 17.2308 17.0562 17.1446C17.2484 17.0584 17.4084 16.9138 17.5135 16.7313L19.5135 13.2713C19.6196 13.0886 19.6652 12.877 19.6437 12.6668C19.6221 12.4566 19.5345 12.2586 19.3935 12.1013L18.0435 10.6613ZM16.5535 12.0013L17.3535 12.9013L16.0735 15.1213L14.8935 14.8813C14.1733 14.7341 13.424 14.8564 12.7881 15.2251C12.1521 15.5938 11.6736 16.1832 11.4435 16.8813L11.0635 18.0013H8.50348L8.14348 16.8613C7.91331 16.1632 7.43483 15.5738 6.79886 15.2051C6.16288 14.8364 5.41367 14.7141 4.69345 14.8613L3.51345 15.1013L2.21345 12.8913L3.01345 11.9913C3.50541 11.4413 3.77738 10.7292 3.77738 9.99134C3.77738 9.25344 3.50541 8.54134 3.01345 7.99136L2.21345 7.09136L3.49345 4.89136L4.67345 5.13136C5.39367 5.27858 6.14288 5.15624 6.77886 4.78756C7.41483 4.41887 7.89331 3.82952 8.12345 3.13136L8.50348 2.00136H11.0635L11.4435 3.14136C11.6736 3.83952 12.1521 4.42887 12.7881 4.79756C13.424 5.16624 14.1733 5.28858 14.8935 5.14136L16.0735 4.90136L17.3535 7.12136L16.5535 8.02134C16.067 8.57014 15.7984 9.27804 15.7984 10.0113C15.7984 10.7446 16.067 11.4526 16.5535 12.0013ZM9.78348 6.00136C8.99228 6.00136 8.21898 6.23595 7.56117 6.67548C6.90337 7.115 6.39068 7.73972 6.08793 8.47064C5.78518 9.20154 5.70597 10.0058 5.86031 10.7817C6.01465 11.5576 6.39562 12.2703 6.95503 12.8297C7.51444 13.3892 8.22718 13.7701 9.00308 13.9245C9.77898 14.0788 10.5833 13.9996 11.3142 13.6968C12.0451 13.3941 12.6698 12.8814 13.1094 12.2236C13.5489 11.5658 13.7835 10.7924 13.7835 10.0013C13.7835 8.94054 13.362 7.92308 12.6119 7.17293C11.8618 6.42278 10.8443 6.00136 9.78348 6.00136ZM9.78348 12.0013C9.38788 12.0013 9.00118 11.884 8.67228 11.6643C8.34338 11.4445 8.08707 11.1321 7.93569 10.7667C7.78432 10.4012 7.74471 9.99914 7.82188 9.61114C7.89905 9.22324 8.08953 8.86684 8.36928 8.58714C8.64898 8.30744 9.00528 8.11694 9.39328 8.03974C9.78128 7.96262 10.1834 8.00224 10.5488 8.15364C10.9143 8.30494 11.2266 8.56134 11.4464 8.89024C11.6662 9.21914 11.7835 9.60584 11.7835 10.0013C11.7835 10.5318 11.5728 11.0405 11.1977 11.4155C10.8226 11.7906 10.3139 12.0013 9.78348 12.0013Z" fill="white"/>
</svg>
