<?xml version="1.0" encoding="utf-8"?>
<!-- Generator: Adobe Illustrator 27.7.0, SVG Export Plug-In . SVG Version: 6.00 Build 0)  -->
<svg version="1.1" id="Capa_1" xmlns="http://www.w3.org/2000/svg" xmlns:xlink="http://www.w3.org/1999/xlink" x="0px" y="0px"
	 viewBox="0 0 118 118" style="enable-background:new 0 0 118 118;" xml:space="preserve">
<style type="text/css">
	.st0{fill:url(#SVGID_1_);}
	.st1{fill:#FFFFFF;}
	.st2{fill:none;stroke:#FFFFFF;stroke-width:2;stroke-miterlimit:10;}
	.st3{fill:none;stroke:#FFFFFF;stroke-miterlimit:10;}
	.st4{fill:none;stroke:#FFFFFF;stroke-width:2;stroke-linecap:round;stroke-miterlimit:10;}
</style>
<g>
	<linearGradient id="SVGID_1_" gradientUnits="userSpaceOnUse" x1="0" y1="59.2024" x2="118" y2="59.2024">
		<stop  offset="0" style="stop-color:#49E1FF"/>
		<stop  offset="0.0636" style="stop-color:#49D8FA"/>
		<stop  offset="0.3302" style="stop-color:#49B5E9"/>
		<stop  offset="0.5825" style="stop-color:#499CDD"/>
		<stop  offset="0.8125" style="stop-color:#498DD6"/>
		<stop  offset="1" style="stop-color:#4988D3"/>
	</linearGradient>
	<circle class="st0" cx="59" cy="59.2" r="59"/>
	<g>
		<path class="st1" d="M61.07,79.35v6.04h-5.63v-6.04H61.07 M63.07,77.35h-9.63v10.04h9.63V77.35L63.07,77.35z"/>
	</g>
	<path class="st2" d="M77.62,90.95H39.78c-1.23,0-2.24-1.01-2.24-2.24v0c0-1.23,1.01-2.24,2.24-2.24h37.84
		c1.23,0,2.24,1.01,2.24,2.24v0C79.86,89.94,78.85,90.95,77.62,90.95z"/>
	<path class="st2" d="M87.38,78.33H30.62c-4.19,0-7.62-3.43-7.62-7.62V36.02c0-4.19,3.43-7.62,7.62-7.62h56.76
		c4.19,0,7.62,3.43,7.62,7.62v34.68C95,74.9,91.57,78.33,87.38,78.33z"/>
	<path class="st3" d="M84.88,74.14h-51.8c-3.08,0-5.6-2.52-5.6-5.6V37.88c0-3.08,2.52-5.6,5.6-5.6h51.8c3.08,0,5.6,2.52,5.6,5.6
		v30.66C90.48,71.62,87.96,74.14,84.88,74.14z"/>
	<g>
		<path class="st4" d="M47.21,57c1.45,6.41,7.93,9.98,14.34,8.53c6.41-1.45,9.45-7.13,9.41-11.36"/>
		<polyline class="st4" points="50.82,57.54 47.19,56.9 45.2,60.02 		"/>
		<path class="st4" d="M70.18,50.42c-1.45-6.41-7.93-9.98-14.34-8.53c-6.41,1.45-9.45,7.13-9.41,11.36"/>
		<polyline class="st4" points="66.58,49.88 70.2,50.52 72.2,47.39 		"/>
	</g>
</g>
</svg>
