<?xml version="1.0" encoding="utf-8"?>
<!-- Generator: Adobe Illustrator 26.3.0, SVG Export Plug-In . SVG Version: 6.00 Build 0)  -->
<svg version="1.1" id="Capa_1" xmlns="http://www.w3.org/2000/svg" xmlns:xlink="http://www.w3.org/1999/xlink" x="0px" y="0px"
	 viewBox="0 0 118 118" style="enable-background:new 0 0 118 118;" xml:space="preserve">
<style type="text/css">
	.st0{fill:#4988D3;}
	.st1{fill:#FFFFFF;}
	.st2{fill:#4988D3;stroke:#FFFFFF;stroke-width:2;stroke-miterlimit:10;}
	.st3{fill:none;stroke:#FFFFFF;stroke-miterlimit:10;}
	.st4{fill:none;stroke:#FFFFFF;stroke-width:2;stroke-linecap:round;stroke-miterlimit:10;}
</style>
<circle class="st0" cx="59" cy="59" r="59"/>
<g>
	<path class="st0" d="M56,86.6c-0.9,0-1.6-0.7-1.6-1.6v-9.7c0-0.9,0.7-1.6,1.6-1.6h4.4c0.9,0,1.6,0.7,1.6,1.6V85
		c0,0.9-0.7,1.6-1.6,1.6H56z"/>
	<path class="st1" d="M60.5,74.8c0.3,0,0.6,0.3,0.6,0.6V85c0,0.3-0.3,0.6-0.6,0.6H56c-0.3,0-0.6-0.3-0.6-0.6v-9.7
		c0-0.3,0.3-0.6,0.6-0.6H60.5 M60.5,72.8H56c-1.4,0-2.6,1.2-2.6,2.6V85c0,1.4,1.2,2.6,2.6,2.6h4.4c1.4,0,2.6-1.2,2.6-2.6v-9.7
		C63.1,73.9,61.9,72.8,60.5,72.8L60.5,72.8z"/>
</g>
<path class="st2" d="M77.6,90.8H39.8c-1.2,0-2.2-1-2.2-2.2l0,0c0-1.2,1-2.2,2.2-2.2h37.8c1.2,0,2.2,1,2.2,2.2l0,0
	C79.9,89.7,78.9,90.8,77.6,90.8z"/>
<path class="st2" d="M87.4,78.1H30.6c-4.2,0-7.6-3.4-7.6-7.6V35.8c0-4.2,3.4-7.6,7.6-7.6h56.8c4.2,0,7.6,3.4,7.6,7.6v34.7
	C95,74.7,91.6,78.1,87.4,78.1z"/>
<path class="st3" d="M84.9,73.9H33.1c-3.1,0-5.6-2.5-5.6-5.6V37.7c0-3.1,2.5-5.6,5.6-5.6h51.8c3.1,0,5.6,2.5,5.6,5.6v30.7
	C90.5,71.4,88,73.9,84.9,73.9z"/>
<g>
	<path class="st4" d="M47.2,56.8c1.5,6.4,7.9,10,14.3,8.5C68,63.9,71,58.2,71,54"/>
	<polyline class="st4" points="50.8,57.3 47.2,56.7 45.2,59.8 	"/>
	<path class="st4" d="M70.2,50.2c-1.5-6.4-7.9-10-14.3-8.5s-9.5,7.1-9.4,11.4"/>
	<polyline class="st4" points="66.6,49.7 70.2,50.3 72.2,47.2 	"/>
</g>
</svg>
