<?xml version="1.0" encoding="utf-8"?>
<!-- Generator: Adobe Illustrator 27.7.0, SVG Export Plug-In . SVG Version: 6.00 Build 0)  -->
<svg version="1.1" id="Capa_1" xmlns="http://www.w3.org/2000/svg" xmlns:xlink="http://www.w3.org/1999/xlink" x="0px" y="0px"
	 viewBox="0 0 118 118" style="enable-background:new 0 0 118 118;" xml:space="preserve">
<style type="text/css">
	.st0{fill:none;stroke:#FFFFFF;stroke-width:2;stroke-linecap:round;stroke-miterlimit:10;}
	.st1{fill:none;stroke:#FFFFFF;stroke-linecap:round;stroke-miterlimit:10;}
	.st2{fill:url(#SVGID_1_);}
</style>
<rect x="77.91" y="57" transform="matrix(-1 -4.500235e-11 4.500235e-11 -1 166.7015 139.5905)" class="st0" width="10.87" height="25.59"/>
<line class="st1" x1="83.35" y1="57" x2="83.35" y2="63.89"/>
<line class="st1" x1="83.35" y1="66.27" x2="83.35" y2="68.83"/>
<line class="st1" x1="83.35" y1="71.55" x2="83.35" y2="82.59"/>
<linearGradient id="SVGID_1_" gradientUnits="userSpaceOnUse" x1="0" y1="59" x2="118" y2="59">
	<stop  offset="0" style="stop-color:#49E1FF"/>
	<stop  offset="0.0636" style="stop-color:#49D8FA"/>
	<stop  offset="0.3302" style="stop-color:#49B5E9"/>
	<stop  offset="0.5825" style="stop-color:#499CDD"/>
	<stop  offset="0.8125" style="stop-color:#498DD6"/>
	<stop  offset="1" style="stop-color:#4988D3"/>
</linearGradient>
<circle class="st2" cx="59" cy="59" r="59"/>
<g>
	<g>
		<path class="st0" d="M51.32,42.04c3.75-2.03,6.81-5.89,7.39-9.88c0.79-5.45-1.72-10.4-5.83-13.13c-0.45-0.3-0.98,0.23-0.72,0.7
			c0.61,1.09,0.66,8.42,0.63,9.76c-0.06,2.86-7.58,4.82-7.58,4.82s-7-2.1-7.22-4.82c-0.11-1.34-0.03-8.1,0.7-9.52
			c0.28-0.55-0.37-1.09-0.88-0.74c-3.44,2.42-5.69,6.42-5.69,10.94c0,5.39,3.19,10.03,7.79,12.14v11.94h11.4V42.04z"/>
		<path class="st0" d="M75.51,58.87c-1.7,0-3.31-0.78-4.36-2.12l-6.61-7.42c-1.44-1.83-2.64-2.9-4.96-2.9h-8.23v7.81l3.06,0.02
			h-2.72h-0.36h-11.4h-4.41c-2.16,0-3.91,1.75-3.91,3.91c0,2.05,1.58,3.71,3.59,3.88h6.34h-6.34c0.11,0.01,0.21,0.03,0.32,0.03
			h-2.64c-2.02,0-3.66,1.64-3.66,3.66c0,2.02,1.64,3.66,3.66,3.66h1.09c-2.07,0-3.74,1.68-3.74,3.74c0,2.07,1.68,3.74,3.74,3.74
			h2.35c-0.08,0-0.15,0.02-0.23,0.02h5.39h-5.39c-1.6,0.12-2.86,1.44-2.86,3.07c0,1.69,1.35,3.06,3.04,3.09l3.66,0.09l11.77,0.3
			l-11.77-0.3v4.2c0,3.15,2.55,5.7,5.7,5.7h0c3.15,0,5.7-2.55,5.7-5.7v-3.91l7.74,0.19c1.76,0.03,4.43-0.75,5.53-2.12l6.47-5.28
			l6.85-0.01V58.87H75.51z M33.4,69.4h8.06H33.4z"/>
	</g>
	
		<rect x="77.91" y="54" transform="matrix(-1 -4.516977e-11 4.516977e-11 -1 166.7015 133.593)" class="st0" width="10.87" height="25.59"/>
	<line class="st1" x1="83.35" y1="54" x2="83.35" y2="60.89"/>
	<line class="st1" x1="83.35" y1="63.27" x2="83.35" y2="65.83"/>
	<line class="st1" x1="83.35" y1="68.55" x2="83.35" y2="79.59"/>
</g>
</svg>
