<?xml version="1.0" encoding="utf-8"?>
<!-- Generator: Adobe Illustrator 26.3.0, SVG Export Plug-In . SVG Version: 6.00 Build 0)  -->
<svg version="1.1" id="Capa_1" xmlns="http://www.w3.org/2000/svg" xmlns:xlink="http://www.w3.org/1999/xlink" x="0px" y="0px"
	 viewBox="0 0 118 118" style="enable-background:new 0 0 118 118;" xml:space="preserve">
<style type="text/css">
	.st0{fill:#4988D3;}
	.st1{fill:none;stroke:#FFFFFF;stroke-width:2;stroke-linecap:round;stroke-miterlimit:10;}
	.st2{fill:#4988D3;stroke:#FFFFFF;stroke-width:2;stroke-linecap:round;stroke-miterlimit:10;}
	.st3{fill:none;stroke:#FFFFFF;stroke-linecap:round;stroke-miterlimit:10;}
</style>
<circle class="st0" cx="59" cy="59" r="59"/>
<g>
	<path class="st1" d="M35.7,32.2c0-4.5,2.2-8.5,5.7-10.9c0.5-0.4,1.2,0.2,0.9,0.7c-0.7,1.4-0.8,8.2-0.7,9.5c0.2,2.7,7.2,4.8,7.2,4.8
		s7.5-2,7.6-4.8c0-1.3,0-8.7-0.6-9.8c-0.3-0.5,0.3-1,0.7-0.7c4.1,2.7,6.6,7.7,5.8,13.1c-0.6,4-3.6,7.9-7.4,9.9v45.3
		c0,3.1-2.6,5.7-5.7,5.7h0c-3.1,0-5.7-2.6-5.7-5.7v-45C38.9,42.2,35.7,37.5,35.7,32.2z"/>
	<path class="st2" d="M58,56.2H39.1c-2.2,0-3.9,1.8-3.9,3.9v0c0,2.2,1.8,3.9,3.9,3.9h6h-8.6c-2,0-3.7,1.6-3.7,3.7v0
		c0,2,1.6,3.7,3.7,3.7h8.9h-7.9c-2.1,0-3.7,1.7-3.7,3.7v0c0,2.1,1.7,3.7,3.7,3.7h7.9h-5.5c-1.7,0-3.1,1.4-3.1,3.1v0
		c0,1.7,1.4,3.1,3,3.1l22.8,0.6c1.8,0,4.4-0.7,5.5-2.1l6.5-5.3l6.9,0V60.9h-2.4c-1.7,0-3.3-0.8-4.4-2.1l-6.6-7.4
		c-1.4-1.8-2.6-2.9-5-2.9h-8.2v7.8"/>
	
		<rect x="81.5" y="56" transform="matrix(-1 -4.491841e-11 4.491841e-11 -1 173.7943 137.5654)" class="st1" width="10.9" height="25.6"/>
	<line class="st3" x1="86.9" y1="56" x2="86.9" y2="62.9"/>
	<line class="st3" x1="86.9" y1="65.3" x2="86.9" y2="67.8"/>
	<line class="st3" x1="86.9" y1="70.5" x2="86.9" y2="81.6"/>
</g>
</svg>
