<?xml version="1.0" encoding="utf-8"?>
<!-- Generator: Adobe Illustrator 26.3.0, SVG Export Plug-In . SVG Version: 6.00 Build 0)  -->
<svg version="1.1" id="Capa_1" xmlns="http://www.w3.org/2000/svg" xmlns:xlink="http://www.w3.org/1999/xlink" x="0px" y="0px"
	 viewBox="0 0 118 118" style="enable-background:new 0 0 118 118;" xml:space="preserve">
<style type="text/css">
	.st0{fill:#4988D3;}
	.st1{fill:none;stroke:#FFFFFF;stroke-width:2;stroke-miterlimit:10;}
	.st2{fill:#4988D3;stroke:#FFFFFF;stroke-width:2;stroke-miterlimit:10;}
	.st3{fill:none;stroke:#FFFFFF;stroke-linecap:round;stroke-miterlimit:10;}
	.st4{fill:#4988D3;stroke:#FFFFFF;stroke-width:2;stroke-linecap:round;stroke-miterlimit:10;}
</style>
<circle class="st0" cx="59" cy="59" r="59"/>
<g>
	<g>
		<g>
			<path class="st1" d="M59,86.2L59,86.2c-10.8,0-19.6-8.8-19.6-19.6v-26c0-10.8,8.8-19.6,19.6-19.6h0c10.8,0,19.6,8.8,19.6,19.6v26
				C78.6,77.3,69.8,86.2,59,86.2z"/>
			<path class="st1" d="M59.1,80.9L59.1,80.9c-7.4,0-13.5-6.1-13.5-13.5V40.2c0-7.4,6.1-13.5,13.5-13.5h0c7.4,0,13.5,6.1,13.5,13.5
				v27.2C72.5,74.8,66.5,80.9,59.1,80.9z"/>
		</g>
		<path class="st2" d="M68.4,93.1H49.6c-8.6,0-15.6-7-15.6-15.6V62.3c0-3,2.4-5.4,5.4-5.4h39.2c3,0,5.4,2.4,5.4,5.4v15.2
			C84,86.1,77,93.1,68.4,93.1z"/>
	</g>
	<line class="st3" x1="34" y1="63" x2="63.5" y2="63"/>
	<line class="st3" x1="66.4" y1="63" x2="69.9" y2="63"/>
	<line class="st3" x1="72.9" y1="63" x2="84" y2="63"/>
	<circle class="st4" cx="58.8" cy="76.6" r="10.1"/>
	<polyline class="st4" points="53.9,76.4 58.4,79.9 63.5,73.8 	"/>
</g>
</svg>
