<?xml version="1.0" encoding="utf-8"?>
<!-- Generator: Adobe Illustrator 27.7.0, SVG Export Plug-In . SVG Version: 6.00 Build 0)  -->
<svg version="1.1" id="Capa_1" xmlns="http://www.w3.org/2000/svg" xmlns:xlink="http://www.w3.org/1999/xlink" x="0px" y="0px"
	 viewBox="0 0 118 118" style="enable-background:new 0 0 118 118;" xml:space="preserve">
<style type="text/css">
	.st0{fill:url(#SVGID_1_);}
	.st1{fill:none;stroke:#FFFFFF;stroke-width:2;stroke-linecap:round;stroke-miterlimit:10;}
	.st2{fill:none;stroke:#FFFFFF;stroke-linecap:round;stroke-miterlimit:10;}
	.st3{fill:none;stroke:#FFFFFF;stroke-width:2;stroke-linecap:round;stroke-miterlimit:5;}
</style>
<linearGradient id="SVGID_1_" gradientUnits="userSpaceOnUse" x1="0" y1="59" x2="118" y2="59">
	<stop  offset="0" style="stop-color:#49E1FF"/>
	<stop  offset="0.0636" style="stop-color:#49D8FA"/>
	<stop  offset="0.3302" style="stop-color:#49B5E9"/>
	<stop  offset="0.5825" style="stop-color:#499CDD"/>
	<stop  offset="0.8125" style="stop-color:#498DD6"/>
	<stop  offset="1" style="stop-color:#4988D3"/>
</linearGradient>
<circle class="st0" cx="59" cy="59" r="59"/>
<g>
	<path class="st1" d="M85.05,55.64l8.6-18.54c0.26-0.9-0.41-1.8-1.35-1.8l-21.9,2c-1.21,0-2.29,0.78-2.66,1.94l-6.16,16.02L24.29,41
		v-4.88c0-2.3,1.42-4.37,3.57-5.2l18.13-1l46.52,5.4"/>
	<path class="st1" d="M67.05,42.65l16.41-1c0.88,0,1.59,0.71,1.59,1.59v17.33c0,1.2-0.93,2.2-2.12,2.29l-18.64,3.4
		c-1.09,0.08-2.04-0.72-2.14-1.81l-0.57-9.19"/>
	<ellipse class="st2" cx="74.23" cy="53.77" rx="3.23" ry="4.41"/>
	<path class="st1" d="M25.99,41.65v5.25c0,0.9,0.54,1.72,1.38,2.07l36.05,17.15"/>
	<circle class="st1" cx="45.75" cy="77.76" r="5.5"/>
	<line class="st1" x1="41.51" y1="55.64" x2="41.51" y2="73.55"/>
	<line class="st1" x1="49.43" y1="59.47" x2="49.43" y2="73.55"/>
	<path class="st3" d="M24.29,65.34v26.74c3.1,0,5.62-5.99,5.62-13.37C29.91,71.33,27.39,65.34,24.29,65.34z"/>
	<line class="st1" x1="29.91" y1="75.98" x2="40.54" y2="75.98"/>
	<line class="st1" x1="29.91" y1="80.64" x2="41.06" y2="80.64"/>
	<line class="st2" x1="26.32" y1="31.25" x2="42.66" y2="34.97"/>
	<line class="st2" x1="50.75" y1="36.68" x2="66.72" y2="39.89"/>
	<line class="st2" x1="45.05" y1="35.51" x2="48.24" y2="36.12"/>
</g>
</svg>
