<?xml version="1.0" encoding="utf-8"?>
<!-- Generator: Adobe Illustrator 26.3.0, SVG Export Plug-In . SVG Version: 6.00 Build 0)  -->
<svg version="1.1" id="Capa_1" xmlns="http://www.w3.org/2000/svg" xmlns:xlink="http://www.w3.org/1999/xlink" x="0px" y="0px"
	 viewBox="0 0 118 118" style="enable-background:new 0 0 118 118;" xml:space="preserve">
<style type="text/css">
	.st0{fill:#4988D3;}
	.st1{fill:#4988D3;stroke:#FFFFFF;stroke-width:2;stroke-linecap:round;stroke-miterlimit:10;}
	.st2{fill:none;stroke:#FFFFFF;stroke-width:2;stroke-linecap:round;stroke-miterlimit:10;}
	.st3{fill:none;stroke:#FFFFFF;stroke-linecap:round;stroke-miterlimit:10;}
	.st4{fill:none;stroke:#FFFFFF;stroke-width:2;stroke-linecap:round;stroke-miterlimit:5;}
</style>
<circle class="st0" cx="59" cy="59" r="59"/>
<g>
	<path class="st1" d="M88.1,53.6l8.6-18.5c0.3-0.9-0.4-1.8-1.4-1.8l-21.9,2c-1.2,0-2.3,0.8-2.7,1.9l-6.2,16L27.3,39v-4.9
		c0-2.3,1.4-4.4,3.6-5.2l18.1-1l46.5,5.4"/>
	<path class="st2" d="M70.1,40.6l16.4-1c0.9,0,1.6,0.7,1.6,1.6v17.3c0,1.2-0.9,2.2-2.1,2.3l-18.6,3.4c-1.1,0.1-2-0.7-2.1-1.8
		l-0.6-9.2"/>
	<ellipse class="st3" cx="77.2" cy="51.8" rx="3.2" ry="4.4"/>
	<path class="st2" d="M29,39.6v5.3c0,0.9,0.5,1.7,1.4,2.1l36.1,17.2"/>
	<circle class="st2" cx="48.7" cy="75.8" r="5.5"/>
	<line class="st2" x1="44.5" y1="53.6" x2="44.5" y2="71.5"/>
	<line class="st2" x1="52.4" y1="57.5" x2="52.4" y2="71.5"/>
	<path class="st4" d="M27.3,63.3v26.7c3.1,0,5.6-6,5.6-13.4C32.9,69.3,30.4,63.3,27.3,63.3z"/>
	<line class="st2" x1="32.9" y1="74" x2="43.5" y2="74"/>
	<line class="st2" x1="32.9" y1="78.6" x2="44.1" y2="78.6"/>
	<line class="st3" x1="29.3" y1="29.2" x2="45.7" y2="33"/>
	<line class="st3" x1="53.7" y1="34.7" x2="69.7" y2="37.9"/>
	<line class="st3" x1="48" y1="33.5" x2="51.2" y2="34.1"/>
</g>
</svg>
