<?xml version="1.0" encoding="utf-8"?>
<!-- Generator: Adobe Illustrator 26.3.0, SVG Export Plug-In . SVG Version: 6.00 Build 0)  -->
<svg version="1.1" id="Capa_1" xmlns="http://www.w3.org/2000/svg" xmlns:xlink="http://www.w3.org/1999/xlink" x="0px" y="0px"
	 viewBox="0 0 118 118" style="enable-background:new 0 0 118 118;" xml:space="preserve">
<style type="text/css">
	.st0{fill:#4988D3;}
	.st1{fill:none;stroke:#FFFFFF;stroke-width:2;stroke-miterlimit:10;}
	.st2{fill:none;stroke:#FFFFFF;stroke-linecap:round;stroke-miterlimit:10;}
	.st3{fill:#4988D3;stroke:#FFFFFF;stroke-width:2;stroke-miterlimit:10;}
</style>
<circle class="st0" cx="59" cy="59" r="59"/>
<path class="st1" d="M89.4,86H28.6c-3.1,0-5.6-2.5-5.6-5.6V37.7c0-3.1,2.5-5.6,5.6-5.6h60.7c3.1,0,5.6,2.5,5.6,5.6v42.6
	C95,83.4,92.5,86,89.4,86z"/>
<line class="st2" x1="23" y1="49.4" x2="67" y2="49.4"/>
<line class="st2" x1="70" y1="49.4" x2="74.7" y2="49.4"/>
<line class="st2" x1="95" y1="49.4" x2="77.6" y2="49.4"/>
<rect x="27.7" y="36.4" class="st2" width="62.8" height="8.6"/>
<line class="st2" x1="34.9" y1="36.4" x2="34.9" y2="45"/>
<path class="st2" d="M8,17.8"/>
<path class="st2" d="M85.7,77.7H58.5c-1.6,0-3-1.3-3-3v-15c0-1.6,1.3-3,3-3h27.2c1.6,0,3,1.3,3,3v15C88.7,76.4,87.4,77.7,85.7,77.7z
	"/>
<path class="st3" d="M95.6,86.2l-7.9-7.9l4-3c1.5-1.1,1-3.4-0.8-3.9l-18.1-4.9c-1.6-0.4-3.1,1.1-2.7,2.7l4.9,18.1
	c0.5,1.8,2.8,2.2,3.9,0.8l3-4l7.9,7.9c0.8,0.8,2.3,0.8,3.1,0l2.9-2.9C96.4,88.5,96.4,87.1,95.6,86.2z"/>
<line class="st2" x1="28.7" y1="56.8" x2="48.9" y2="56.8"/>
<line class="st2" x1="28.7" y1="63" x2="41" y2="63"/>
<line class="st2" x1="28.7" y1="69.5" x2="46" y2="69.5"/>
<line class="st2" x1="28.7" y1="76.3" x2="48.9" y2="76.3"/>
</svg>
