
<svg width="164" height="151" viewBox="0 0 164 151" fill="none" xmlns="http://www.w3.org/2000/svg">
<circle cx="69" cy="82" r="69" fill="#4988D3"/>
<g clip-path="url(#clip0_0_1)">
<path d="M99.6378 75.89L164 19.0069L145.788 0L79.0117 57.1586L99.6378 75.89Z" fill="white"/>
<path d="M98.7407 73.2043C103.363 85.4624 100.603 99.993 90.4627 109.634C81.7707 117.898 69.9745 120.722 59.0751 118.105L75.7002 102.197C82.2536 95.93 82.4606 85.5312 76.1831 78.989L73.4927 76.1655C67.2152 69.6233 56.7986 69.4167 50.2452 75.6834L33.6201 91.5914C31.4816 80.6418 34.7928 68.9346 43.4848 60.6707C53.6254 50.9606 68.112 48.8258 80.2531 53.9219" fill="white"/>
</g>
<defs>
<clipPath id="clip0_0_1">
<rect width="131" height="119" fill="white" transform="translate(33)"/>
</clipPath>
</defs>
</svg>
