<svg width="26" height="18" viewBox="0 0 26 18" fill="none" xmlns="http://www.w3.org/2000/svg">
<g clip-path="url(#clip0_200_135)">
<path fill-rule="evenodd" clip-rule="evenodd" d="M25.809 1.71257L14.6714 9.80743C13.6792 10.5274 12.3208 10.5274 11.3286 9.80743L0.19102 1.71257C0.0636735 2.02629 0 2.36057 0 2.7V15.3C0 16.0149 0.291837 16.704 0.817143 17.208C1.33714 17.7171 2.04816 18 2.78571 18H23.2143C23.9518 18 24.6629 17.7171 25.1829 17.208C25.7082 16.704 26 16.0149 26 15.3V2.7C26 2.36057 25.9363 2.02629 25.809 1.71257ZM1.41143 0.349714L12.4429 8.36743C12.7718 8.60914 13.2282 8.60914 13.5571 8.36743L24.5886 0.349714C24.1747 0.123429 23.7024 0 23.2143 0H2.78571C2.30286 0 1.82531 0.123429 1.41143 0.349714Z" fill="white"/>
</g>
<defs>
<clipPath id="clip0_200_135">
<rect width="26" height="18" fill="white"/>
</clipPath>
</defs>
</svg>
