<svg width="22" height="18" viewBox="0 0 22 18" fill="none" xmlns="http://www.w3.org/2000/svg">
<path d="M19 0H3C1.34325 0 0 1.34325 0 3V15C0 16.6567 1.34325 18 3 18H19C20.6568 18 22 16.6567 22 15V3C22 1.34325 20.6568 0 19 0ZM19 2C19.1155 2 19.2265 2.0195 19.3295 2.05575L11 8.7195L2.6705 2.05575C2.77639 2.01865 2.88781 1.9998 3 2H19ZM19 16H3C2.73479 16 2.48043 15.8946 2.2929 15.7071C2.10536 15.5196 2 15.2652 2 15V4.0805L10.3753 10.7808C10.5578 10.927 10.7788 11 11 11C11.2213 11 11.4423 10.927 11.6248 10.7808L20 4.0805V15C20 15.2652 19.8947 15.5196 19.7071 15.7071C19.5196 15.8946 19.2652 16 19 16Z" fill="white"/>
</svg>
