<?xml version="1.0" encoding="utf-8"?>
<!-- Generator: Adobe Illustrator 26.3.0, SVG Export Plug-In . SVG Version: 6.00 Build 0)  -->
<svg version="1.1" id="Capa_1" xmlns="http://www.w3.org/2000/svg" xmlns:xlink="http://www.w3.org/1999/xlink" x="0px" y="0px"
	 viewBox="0 0 1015.1 192.9" style="enable-background:new 0 0 1015.1 192.9;" xml:space="preserve">
<style type="text/css">
	.st0{fill:#FFFFFF;}
</style>
<g>
	<g>
		<path class="st0" d="M424.7,192.9c-1.1-2.8-4.2-14.7-5.4-20.8c5,0,9.3,0,13.5,0c171.3,0,342.6-0.5,513.9,0.5
			c29.7,0.2,48.9-22.4,47.6-47.2c-0.9-18.7-0.1-37.5-0.2-56.2C994,39.1,976.2,21.3,945.8,21c-23.7-0.2-47.4-0.1-71-0.1
			c-264.9,0-529.8,0-794.8,0c-6.3,0-12.6-0.1-18.8,0.6C37.6,24.2,22,40.1,20.9,63.6C20.2,79,20.3,94.5,21,109.9
			c0.9,20.8,12.7,38.5,31.8,41.6c6.1,1,6.5,0.7,9.9,0.7c22.6,0,45.1,0,67.7,0c13.1,0,13.4-0.1,15.9-12.8c0.6-3.1,0.5-6.4,0.9-11.2
			c-4.4,0-8,0-11.6,0c-18.1,0-36.3,0.1-54.4,0c-17.3-0.1-23.1-7.5-19.3-24.5c6.7-30.1,12.9-35.2,43.3-35.2c24,0,48.1,0,72.1,0
			c3.6,0,7.2,0,10.8,0c-0.8,14.1,0.3,15.6-12.9,15.6c-21.8,0-43.7,0.1-65.5,0c-17-0.1-13.4-0.3-18.1,14.4c-0.6,1.9-1.3,4.2-2,7.4
			c19.2,0,39.8-0.1,58.6,0.2c5.8,0.1,11.8,0.8,17.4,2.1c7,1.6,11,6.6,9.8,13.8c-1.9,11.1-3.7,22.4-7.4,33
			c-3.2,9.3-12.6,12.6-21.7,12.7c-34,0.4-68.1,0.3-102.1,0.1c-2.8,0-5.8-1.1-8.4-2.5C13.1,153.2,0.4,134.7,0,108.7
			C-0.2,94,0.3,79.3,0.3,64.6C0.2,30.1,26.9,2,61.6,0.2c3.3-0.2,6.7-0.1,10-0.1c290.8,0,581.6,0,872.4-0.1c29.2,0,51.9,11,64.8,37.6
			c3.7,7.7,5.5,16.9,5.8,25.4c0.8,22.8,0.5,45.6,0.2,68.3c-0.4,34.4-27.5,61.4-62.2,61.4c-172.8,0.1-345.6,0.1-518.4,0.1
			C431.4,192.9,428.4,192.9,424.7,192.9z"/>
		<path class="st0" d="M240.4,69.9C234,97,227.7,123.7,221,152.3c6.2,0,10.2,0,14.1,0c28.9,0,57.7,0,86.6,0c15.2,0,15.8-0.4,18-15.5
			c0.3-2.1,0.3-4.3,0.5-7.8c-3.9-0.2-7.3-0.6-10.8-0.7c-18.1-0.1-36.3,0.1-54.4-0.1c-18.1-0.1-23.9-7.5-19.9-24.9
			c6.8-29.9,13-34.8,43.6-34.8c37.7,0,75.5,0,113.2,0c4,0,8.1,0,13.2,0c5.3,23.4,10.5,46.4,16.1,71.2c2.7-3.9,4.6-6.4,6.2-9.1
			c10.9-18.3,21.8-36.7,32.4-55.1c2.9-5,6.3-7,12.4-7.1c8,0,14.7,0.1,23.4,0.1c2.3,23.4,4.5,46.1,6.9,71.1c5.6-8,10-14.2,14.3-20.5
			c10.1-14.9,20.3-29.8,30.2-44.8c2.7-4,5.6-6,10.8-5.9c42.8,0.2,85.7,0.2,128.5,0.1c12,0,22.2,7.9,18.3,22
			c-5,18-8.4,36.4-13.2,54.4c-4.4,16.3-13.7,23-30.6,23c-25.2,0.1-50.3,0.1-75.5,0c-18.7-0.1-24.3-7.5-19.9-25.9
			c4.5-18.8,9.1-37.6,13.8-57.1c-5.5,0-10.9,0-17,0c-16.1,23.9-32.8,48.1-48.7,72.8c-4.9,7.7-9.2,10.7-19.6,10.4
			c-4.7-0.1-9.6-0.1-15.7-0.1c-2.5-24.2-4.9-48-7.6-74.4c-3.4,5.2-5.4,8.1-7.2,11.2c-10.3,17.4-21,34.6-30.4,52.5
			c-4.7,8.9-7.4,10.9-19,10.9c-4.7,0-7.1,0.1-15.8,0c-6.6-27.5-13-56.1-19.7-83.9c-10.1,0-20,0-30,0c-21.8,0-43.7,0-65.5,0
			c-16,0-13.8-1.5-18.4,15.3c-0.5,1.7-1.1,4.1-1.6,6.8c13.3,0,27.7-0.2,40.6-0.2c8.9,0,17.8-0.4,26.6,0.2c14.6,0.9,20.2,7,18.3,21.2
			c-1.1,8.6-3.6,17.2-6.3,25.5c-3.6,11.2-13.3,14.7-23.6,14.8c-45.1,0.4-90.3,0.3-135.4,0.1c-9.3,0-13.1-5.8-10.8-15.8
			c4.9-21.4,10-42.7,15.2-64.1c5.1-20.9,5.4-20.2,27.3-18.6C236.3,69.4,237.3,69.5,240.4,69.9z M697.2,84.4
			c-2.2-0.1-3.3-0.1-4.3-0.2c-19.2-0.1-38.4-0.1-57.6-0.2c-5.3,0-7.8,2.3-9,7.5c-4,17.4-8.6,34.8-12.8,52.2
			c-0.6,2.3-1.4,4.6-2.2,8.6c17.1,0,35.8,0.1,52.3-0.1c19.1-0.2,16.7,3.2,21.6-16.6C689.3,119,693.3,101,697.2,84.4z"/>
		<path class="st0" d="M860.4,24.5c9.5,0,18.3,0,28.9,0c-11.6,47.9-23.1,94.9-34.6,142.5c-9.7,0-18.6,0-29,0
			C837.3,119.1,848.8,72.3,860.4,24.5z"/>
		<path class="st0" d="M826.6,68.4C825.7,83.7,825.5,84,813,84c-8.5,0-17,0.3-25.5-0.1c-7.5-0.3-11.3,2.2-13,9.9
			c-4.5,20.3-9.8,40.4-14.8,60.6c-3.2,13.3-3.2,13.3-16.5,13.4c-4.3,0-8.6,0-14.7,0c1.6-7.5,2.8-13.4,4.2-19.2
			c5-20.9,9.9-41.9,15.3-62.7c3.6-13.9,8.7-17.5,22.6-17.5C789,68.4,807.4,68.4,826.6,68.4z"/>
		<path class="st0" d="M874.2,132.2c-0.9-13.2,3.4-21.7,13.4-27.5c16.8-9.7,32.5-19.4,48.5-29.1c16.8-10.1,33.9-6.5,40.2-3.3
			C973.6,74.1,877.6,131.2,874.2,132.2z"/>
		<path class="st0" d="M959.5,163.1c0.8,0.9,0.4,2.4-0.8,2.8c-1,0.3-2.3,1.1-7.7,1.9c-6.6,0.9-13.3,0.6-19.9-0.1
			c-3.2-0.3-7-2.1-9.2-4.4c-6.9-7.2-13.2-14.8-19.5-22.4c-5-6-4.5-8.9,1.5-13.6c0.9-0.7,1.8-1.2,2.7-1.8c12.4-8.4,12.3-8.4,22.4,3.1
			C938.5,139.4,948.2,150.3,959.5,163.1z"/>
	</g>
	<g>
		<path class="st0" d="M113.7,178.6v0.3c0,1,0.6,1.5,1.7,1.5h12.2c3.9,0,6.4,1.4,6.4,5.2v2c0,3.9-2.5,5.2-6.4,5.2h-17.8
			c-0.8,0-1.2-0.4-1.2-1.2v-2.3c0-0.8,0.4-1.2,1.2-1.2h17c1.1,0,1.7-0.4,1.7-1.5v-0.3c0-1-0.6-1.5-1.7-1.5h-12.2
			c-3.9,0-6.4-1.4-6.4-5.2v-2c0-3.9,2.5-5.2,6.4-5.2h17.5c0.8,0,1.2,0.4,1.2,1.2v2.3c0,0.8-0.4,1.2-1.2,1.2h-16.8
			C114.3,177.2,113.7,177.6,113.7,178.6z"/>
		<path class="st0" d="M136.5,186.7v-8.2c0-3.9,2.2-6.1,6.1-6.1h14.3c3.9,0,6.1,2.2,6.1,6.1v8.2c0,3.9-2.2,6.1-6.1,6.1h-14.3
			C138.6,192.8,136.5,190.6,136.5,186.7z M157.5,185.9v-6.5c0-1.4-0.8-2.2-2.2-2.2h-11.2c-1.4,0-2.2,0.8-2.2,2.2v6.5
			c0,1.4,0.8,2.2,2.2,2.2h11.2C156.7,188,157.5,187.3,157.5,185.9z"/>
		<path class="st0" d="M173.5,188H189c0.8,0,1.2,0.4,1.2,1.2v2.3c0,0.8-0.4,1.2-1.2,1.2h-17c-3.9,0-6.1-2.2-6.1-6.1v-13.1
			c0-0.8,0.4-1.2,1.2-1.2h3c0.8,0,1.2,0.4,1.2,1.2v12.3C171.3,187.3,172.1,188,173.5,188z"/>
		<path class="st0" d="M211.7,192.8h-13.6c-3.9,0-6.1-2.2-6.1-6.1v-13.1c0-0.8,0.4-1.2,1.2-1.2h3c0.8,0,1.2,0.4,1.2,1.2v12.3
			c0,1.4,0.8,2.2,2.2,2.2h10.5c1.4,0,2.2-0.8,2.2-2.2v-12.3c0-0.8,0.4-1.2,1.2-1.2h3c0.8,0,1.2,0.4,1.2,1.2v13.1
			C217.8,190.6,215.6,192.8,211.7,192.8z"/>
		<path class="st0" d="M220.8,186.7v-8.2c0-3.9,2.2-6.1,6.1-6.1h17.5c0.8,0,1.2,0.4,1.2,1.2v2.3c0,0.8-0.4,1.2-1.2,1.2h-15.9
			c-1.4,0-2.2,0.8-2.2,2.2v6.5c0,1.4,0.8,2.2,2.2,2.2h15.9c0.8,0,1.2,0.4,1.2,1.2v2.3c0,0.8-0.4,1.2-1.2,1.2h-17.5
			C222.9,192.8,220.8,190.6,220.8,186.7z"/>
		<path class="st0" d="M253.7,191.6c0,0.8-0.4,1.2-1.2,1.2h-3c-0.8,0-1.2-0.4-1.2-1.2v-18c0-0.8,0.4-1.2,1.2-1.2h3
			c0.8,0,1.2,0.4,1.2,1.2V191.6z"/>
		<path class="st0" d="M256.8,186.7v-8.2c0-3.9,2.2-6.1,6.1-6.1h14.3c3.9,0,6.1,2.2,6.1,6.1v8.2c0,3.9-2.2,6.1-6.1,6.1h-14.3
			C259,192.8,256.8,190.6,256.8,186.7z M277.8,185.9v-6.5c0-1.4-0.8-2.2-2.2-2.2h-11.2c-1.4,0-2.2,0.8-2.2,2.2v6.5
			c0,1.4,0.8,2.2,2.2,2.2h11.2C277,188,277.8,187.3,277.8,185.9z"/>
		<path class="st0" d="M292.3,172.4h13.6c3.9,0,6.1,2.2,6.1,6.1v13.1c0,0.8-0.4,1.2-1.2,1.2h-3c-0.8,0-1.2-0.4-1.2-1.2v-12.3
			c0-1.4-0.8-2.2-2.2-2.2h-10.5c-1.4,0-2.2,0.8-2.2,2.2v12.3c0,0.8-0.4,1.2-1.2,1.2h-3c-0.8,0-1.2-0.4-1.2-1.2v-13.1
			C286.2,174.6,288.4,172.4,292.3,172.4z"/>
		<path class="st0" d="M320.3,185.9c0,1.4,0.8,2.2,2.2,2.2h16.4c0.8,0,1.2,0.4,1.2,1.2v2.3c0,0.8-0.4,1.2-1.2,1.2H321
			c-3.9,0-6.1-2.2-6.1-6.1v-8.2c0-3.9,2.2-6.1,6.1-6.1h17.9c0.8,0,1.2,0.4,1.2,1.2v2.3c0,0.8-0.4,1.2-1.2,1.2h-16.4
			c-1.4,0-2.2,0.8-2.2,2.2v1h16.2c0.8,0,1.2,0.4,1.2,1.2v2c0,0.8-0.4,1.2-1.2,1.2h-16.2V185.9z"/>
		<path class="st0" d="M347.7,178.6v0.3c0,1,0.6,1.5,1.7,1.5h12.2c3.9,0,6.4,1.4,6.4,5.2v2c0,3.9-2.5,5.2-6.4,5.2h-17.8
			c-0.8,0-1.2-0.4-1.2-1.2v-2.3c0-0.8,0.4-1.2,1.2-1.2h17c1.1,0,1.7-0.4,1.7-1.5v-0.3c0-1-0.6-1.5-1.7-1.5h-12.2
			c-3.9,0-6.4-1.4-6.4-5.2v-2c0-3.9,2.5-5.2,6.4-5.2h17.5c0.8,0,1.2,0.4,1.2,1.2v2.3c0,0.8-0.4,1.2-1.2,1.2h-16.8
			C348.3,177.2,347.7,177.6,347.7,178.6z"/>
		<path class="st0" d="M385.8,191.6c0,0.8-0.4,1.2-1.2,1.2h-3c-0.8,0-1.2-0.4-1.2-1.2v-18c0-0.8,0.4-1.2,1.2-1.2h3
			c0.8,0,1.2,0.4,1.2,1.2V191.6z"/>
		<path class="st0" d="M403.8,191.6c0,0.8-0.4,1.2-1.2,1.2h-3c-0.8,0-1.2-0.4-1.2-1.2v-14.4h-9c-0.8,0-1.2-0.4-1.2-1.2v-2.3
			c0-0.8,0.4-1.2,1.2-1.2h23.4c0.8,0,1.2,0.4,1.2,1.2v2.3c0,0.8-0.4,1.2-1.2,1.2h-9L403.8,191.6L403.8,191.6z"/>
	</g>
</g>
</svg>
