<?xml version="1.0" encoding="utf-8"?>
<!-- Generator: Adobe Illustrator 26.3.0, SVG Export Plug-In . SVG Version: 6.00 Build 0)  -->
<svg version="1.1" id="Capa_1" xmlns="http://www.w3.org/2000/svg" xmlns:xlink="http://www.w3.org/1999/xlink" x="0px" y="0px"
	 viewBox="0 0 372.1 155.6" style="enable-background:new 0 0 372.1 155.6;" xml:space="preserve">
<style type="text/css">
	.st0{fill:#3A68B8;}
	.st1{fill:#FFFFFF;}
</style>
<path class="st0" d="M279.2,155.5L0,155.5c-0.3,2.5,8.1-39.5,15.1-78.6C22.6,35,44.1,0,87.2,0h284.9c0,0-10.4,57.7-13.8,76.9
	C350.9,119.7,322.9,155.5,279.2,155.5z"/>
<path class="st1" d="M305.7,36.5c-10,15-17.2,25.5-27.3,40.4c-4.3,6.3-4.7,8.4-10.3,16.5c-2-23.8-3.1-41.2-4.9-65.1
	c-8.8,0-10.5-0.2-18.4-0.1c-6.1,0-12.5,2-15.4,7.1c-10.6,18.5-32.6,53.1-35.2,57.2c-5.6-24.8-9.2-40.7-14.5-64.2c-3.5,0-7,0-9.5,0
	c0,0,7,0,7,0c-3.5,0-15,0-18.6,0c-24,0-41.1,0-65.1,0c-34.5,0-35.7,4.8-43.3,35.2C45.9,80.3,43.9,88,69.4,88c18.1,0,36.3,0,54.4,0
	c3.6,0,8.2,0,12.6,0c-1.3,5.2-2,8.1-2.8,11.2c-2.7,10.5-3.1,12.8-15.1,12.8c-20.7,0-54.4,0-77,0c-3.4,0-6.4,2.3-7.3,5.6L31.7,128
	c34,0.2,69-0.1,103-0.5c9.1-0.1,18.1-2.7,20.6-12.8c2.7-10.9,5.3-21.3,8.3-32.9c1.9-7.3-2.7-12.1-9.7-13.8c-5.7-1.3-11.6-2-17.4-2.1
	c-18.8-0.3-39-0.2-58.2-0.2c0.9-3.5,1.4-5.4,1.9-7.4c3.6-14.2,3.7-14.5,17.7-14.4c11.6,0,23.2,0,34.8,0c9,0,18.1,0,27.3,0
	c6.7,27.8,13.1,56.3,19.7,83.8c7.1,0,21.5,0,21.5,0s39.6-65.2,43-70.4c2.4,28.4,3.6,45.8,5.6,70.4c6.1,0,5,0,9.8,0
	c10.7,0,12.5-2.6,17.5-10.3c14.5-22.5,27.7-41.7,42.5-63.5c2.7-4.1,8.2-6.1,14.1-6.3l2.5,0l4.2-19.6C334.5,28,313.7,24.6,305.7,36.5
	z"/>
</svg>
