<svg width="95" height="99" viewBox="0 0 95 99" fill="none" xmlns="http://www.w3.org/2000/svg">
<g clip-path="url(#clip0_200_166)">
<path d="M47.5 0C21.4896 0 0 22.3944 0 49.5C0 76.6056 21.1742 99 47.5 99C73.8258 99 95 76.9343 95 49.5C95 22.0657 73.5314 0 47.5 0ZM47.5 93.9602C23.9077 93.9602 4.83621 74.0857 4.83621 49.5C4.83621 24.9143 23.9077 5.03984 47.5 5.03984C71.0923 5.03984 90.1638 24.9143 90.1638 49.5C90.1638 74.0857 71.0923 93.9602 47.5 93.9602ZM84.4234 56.1175V60.5219H71.1133V38.7849H75.9495V56.1175H84.4234ZM22.3938 60.2151C27.23 60.2151 31.4774 56.753 32.3816 52.0199L44.1777 61.4861L55.9739 52.0199V60.2151H69.284V55.8108H60.5157V38.4781H55.6795V46.6733L44.4931 56.1394L42.054 53.9263L47.5 49.5219L53.2404 44.7888L49.9181 41.9402L38.7317 51.0777L36.3136 48.8645L47.5 40.0339L44.1777 37.1853L32.3816 46.6733C31.162 41.9402 27.23 38.4781 22.3938 38.4781H13.9199V60.2371C13.9199 60.2151 22.3938 60.2151 22.3938 60.2151ZM18.4617 56.1175V42.8825H22.0784C25.1062 42.8825 27.8187 45.7311 27.8187 49.5C27.8187 52.9622 25.4006 56.1175 22.0784 56.1175H18.4617Z" fill="#007DB8"/>
</g>
<defs>
<clipPath id="clip0_200_166">
<rect width="95" height="99" fill="white"/>
</clipPath>
</defs>
</svg>
