<svg width="162" height="130" viewBox="0 0 162 130" fill="none" xmlns="http://www.w3.org/2000/svg">
<g clip-path="url(#clip0_412_29)">
<path d="M162 0H0V130H162V0Z" fill="#F0F0F0"/>
<path d="M77.1439 25.2497L77.6743 23.75H79.265H79.2684H79.2718H79.2752H79.2785H79.2819H79.2853H79.2887H79.292H79.2954H79.2988H79.3021H79.3055H79.3089H79.3123H79.3156H79.319H79.3224H79.3258H79.3291H79.3325H79.3359H79.3392H79.3426H79.346H79.3494H79.3527H79.3561H79.3595H79.3629H79.3662H79.3696H79.373H79.3764H79.3797H79.3831H79.3865H79.3898H79.3932H79.3966H79.4H79.4033H79.4067H79.4101H79.4135H79.4168H79.4202H79.4236H79.4269H79.4303H79.4337H79.4371H79.4404H79.4438H79.4472H79.4506H79.4539H79.4573H79.4607H79.464H79.4674H79.4708H79.4742H79.4775H79.4809H79.4843H79.4877H79.491H79.4944H79.4978H79.5011H79.5045H79.5079H79.5113H79.5146H79.518H79.5214H79.5248H79.5281H79.5315H79.5349H79.5382H79.5416H79.545H79.5484H79.5517H79.5551H79.5585H79.5619H79.5652H79.5686H79.572H79.5753H79.5787H79.5821H79.5855H79.5888H79.5922H79.5956H79.599H79.6023H79.6057H79.6091H79.6124H79.6158H79.6192H79.6226H79.6259H79.6293H79.6327H79.6361H79.6394H79.6428H79.6462H79.6496H79.6529H79.6563H79.6597H79.663H79.6664H79.6698H79.6732H79.6765H79.6799H79.6833H79.6867H79.69H79.6934H79.6968H79.7001H79.7035H79.7069H79.7103H79.7136H79.717H79.7204H79.7238H79.7271H79.7305H79.7339H79.7372H79.7406H79.744H79.7474H79.7507H79.7541H79.7575H79.7609H79.7642H79.7676H79.771H79.7743H79.7777H79.7811H79.7845H79.7878H79.7912H79.7946H79.798H79.8013H79.8047H79.8081H79.8115H79.8148H79.8182H79.8216H79.8249H79.8283H79.8317H79.8351H79.8384H79.8418H79.8452H79.8486H79.8519H79.8553H79.8587H79.862H79.8654H79.8688H79.8722H79.8755H79.8789H79.8823H79.8857H79.889H79.8924H79.8958H79.8991H79.9025H79.9059H79.9093H79.9126H79.916H79.9194H79.9228H79.9261H79.9295H79.9329H79.9362H79.9396H79.943H79.9464H79.9497H79.9531H79.9565H79.9599H79.9632H79.9666H79.97H79.9733H79.9767H79.9801H79.9835H79.9868H79.9902H79.9936H79.997H80.0003H80.0037H80.0071H80.0104H80.0138H80.0172H80.0206H80.0239H80.0273H80.0307H80.0341H80.0374H80.0408H80.0442H80.0476H80.0509H80.0543H80.0577H80.061H80.0644H80.0678H80.0712H80.0745H80.0779H80.0813H80.0847H80.088H80.0914H80.0948H80.0981H80.1015H80.1049H80.1083H80.1116H80.115H80.1184H80.1218H80.1251H80.1285H80.1319H80.1352H80.1386H80.142H80.1454H80.1487H80.1521H80.1555H80.1589H80.1622H80.1656H80.169H80.1723H80.1757H80.1791H80.1825H80.1858H80.1892H80.1926H80.196H80.1993H80.2027H80.2061H80.2094H80.2128H80.2162H80.2196H80.2229H80.2263H80.2297H80.2331H80.2364H80.2398H80.2432H80.2466H80.2499H80.2533H80.2567H80.26H80.2634H80.2668H80.2702H80.2735H80.2769H80.2803H80.2836H80.287H80.2904H80.2938H80.2971H80.3005H80.3039H80.3073H80.3106H80.314H80.3174H80.3208H80.3241H80.3275H80.3309H80.3342H80.3376H80.341H80.3444H80.3477H80.3511H80.3545H80.3579H80.3612H80.3646H80.368H80.3713H80.3747H80.3781H80.3815H80.3848H80.3882H80.3916H80.395H80.3983H80.4017H80.4051H80.4084H80.4118H80.4152H80.4186H80.4219H80.4253H80.4287H80.4321H80.4354H80.4388H80.4422H80.4455H80.4489H80.4523H80.4557H80.459H80.4624H80.4658H80.4692H80.4725H80.4759H80.4793H80.4827H80.486H80.4894H80.4928H80.4961H80.4995H80.5029H80.5063H80.5096H80.513H80.5164H80.5198H80.5231H80.5265H80.5299H80.5332H80.5366H80.54H80.5434H80.5467H80.5501H80.5535H80.5569H80.5602H80.5636H80.567H80.5703H80.5737H80.5771H80.5805H80.5838H80.5872H80.5906H80.594H80.5973H80.6007H80.6041H80.6074H80.6108H80.6142H80.6176H80.6209H80.6243H80.6277H80.6311H80.6344H80.6378H80.6412H80.6445H80.6479H80.6513H80.6547H80.658H80.6614H80.6648H80.6682H80.6715H80.6749H80.6783H80.6816H80.685H80.6884H80.6918H80.6951H80.6985H80.7019H80.7053H80.7086H80.712H80.7154H80.7188H80.7221H80.7255H80.7289H80.7322H80.7356H80.739H80.7424H80.7457H80.7491H80.7525H80.7559H80.7592H80.7626H80.766H80.7693H80.7727H80.7761H80.7795H80.7828H80.7862H80.7896H80.793H80.7963H80.7997H80.8031H80.8064H80.8098H80.8132H80.8166H80.8199H80.8233H80.8267H80.8301H80.8334H80.8368H80.8402H80.8435H80.8469H80.8503H80.8537H80.857H80.8604H80.8638H80.8672H80.8705H80.8739H80.8773H80.8806H80.884H80.8874H80.8908H80.8941H80.8975H80.9009H80.9043H80.9076H80.911H80.9144H80.9178H80.9211H80.9245H80.9279H80.9312H80.9346H80.938H80.9414H80.9447H80.9481H80.9515H80.9549H80.9582H80.9616H80.965H80.9683H80.9717H80.9751H80.9785H80.9818H80.9852H80.9886H80.992C103.167 23.75 121.09 42.3386 121.09 65.0379C121.09 87.8856 103.31 106.326 80.992 106.326H80.9894H80.9869H80.9844H80.9819H80.9793H80.9768H80.9743H80.9718H80.9693H80.9668H80.9643H80.9618H80.9593H80.9569H80.9544H80.9519H80.9494H80.9469H80.9445H80.942H80.9395H80.9371H80.9346H80.9322H80.9297H80.9273H80.9248H80.9224H80.9199H80.9175H80.9151H80.9126H80.9102H80.9078H80.9053H80.9029H80.9005H80.8981H80.8957H80.8933H80.8909H80.8885H80.8861H80.8837H80.8813H80.8789H80.8765H80.8741H80.8717H80.8693H80.8669H80.8646H80.8622H80.8598H80.8574H80.8551H80.8527H80.8504H80.848H80.8456H80.8433H80.8409H80.8386H80.8362H80.8339H80.8316H80.8292H80.8269H80.8245H80.8222H80.8199H80.8176H80.8152H80.8129H80.8106H80.8083H80.806H80.8036H80.8013H80.799H80.7967H80.7944H80.7921H80.7898H80.7875H80.7852H80.7829H80.7806H80.7783H80.7761H80.7738H80.7715H80.7692H80.7669H80.7647H80.7624H80.7601H80.7578H80.7556H80.7533H80.751H80.7488H80.7465H80.7443H80.742H80.7398H80.7375H80.7353H80.733H80.7308H80.7285H80.7263H80.724H80.7218H80.7196H80.7173H80.7151H80.7129H80.7106H80.7084H80.7062H80.704H80.7017H80.6995H80.6973H80.6951H80.6929H80.6906H80.6884H80.6862H80.684H80.6818H80.6796H80.6774H80.6752H80.673H80.6708H80.6686H80.6664H80.6642H80.662H80.6598H80.6576H80.6554H80.6532H80.6511H80.6489H80.6467H80.6445H80.6423H80.6401H80.638H80.6358H80.6336H80.6314H80.6293H80.6271H80.6249H80.6228H80.6206H80.6184H80.6163H80.6141H80.6119H80.6098H80.6076H80.6054H80.6033H80.6011H80.599H80.5968H80.5947H80.5925H80.5904H80.5882H80.5861H80.5839H80.5818H80.5796H80.5775H80.5753H80.5732H80.571H80.5689H80.5668H80.5646H80.5625H80.5603H80.5582H80.5561H80.5539H80.5518H80.5497H80.5475H80.5454H80.5433H80.5411H80.539H80.5369H80.5347H80.5326H80.5305H80.5284H80.5262H80.5241H80.522H80.5199H80.5177H80.5156H80.5135H80.5114H80.5093H80.5071H80.505H80.5029H80.5008H80.4987H80.4965H80.4944H80.4923H80.4902H80.4881H80.486H80.4838H80.4817H80.4796H80.4775H80.4754H80.4733H80.4712H80.4691H80.4669H80.4648H80.4627H80.4606H80.4585H80.4564H80.4543H80.4522H80.4501H80.4479H80.4458H80.4437H80.4416H80.4395H80.4374H80.4353H80.4332H80.4311H80.429H80.4269H80.4248H80.4226H80.4205H80.4184H80.4163H80.4142H80.4121H80.41H80.4079H80.4058H80.4037H80.4016H80.3995H80.3973H80.3952H80.3931H80.391H80.3889H80.3868H80.3847H80.3826H80.3805H80.3784H80.3763H80.3741H80.372H80.3699H80.3678H80.3657H80.3636H80.3615H80.3594H80.3572H80.3551H80.353H80.3509H80.3488H80.3467H80.3446H80.3424H80.3403H80.3382H80.3361H80.334H80.3319H80.3297H80.3276H80.3255H80.3234H80.3213H80.3191H80.317H80.3149H80.3128H80.3106H80.3085H80.3064H80.3043H80.3021H80.3H80.2979H80.2958H80.2936H80.2915H80.2894H80.2872H80.2851H80.283H80.2808H80.2787H80.2766H80.2744H80.2723H80.2702H80.268H80.2659H80.2637H80.2616H80.2595H80.2573H80.2552H80.253H80.2509H80.2487H80.2466H80.2444H80.2423H80.2401H80.238H80.2358H80.2337H80.2315H80.2294H80.2272H80.225H80.2229H80.2207H80.2185H80.2164H80.2142H80.212H80.2099H80.2077H80.2055H80.2034H80.2012H80.199H80.1968H80.1947H80.1925H80.1903H80.1881H80.1859H80.1838H80.1816H80.1794H80.1772H80.175H80.1728H80.1706H80.1684H80.1662H80.164H80.1618H80.1596H80.1574H80.1552H80.153H80.1508H80.1486H80.1464H80.1442H80.142H80.1398H80.1376H80.1353H80.1331H80.1309H80.1287H80.1265H80.1242H80.122H80.1198H80.1175H80.1153H80.1131H80.1108H80.1086H80.1064H80.1041H80.1019H80.0996H80.0974H80.0951H80.0929H80.0906H80.0884H80.0861H80.0838H80.0816H80.0793H80.0771H80.0748H80.0725H80.0702H80.068H80.0657H80.0634H80.0611H80.0589H80.0566H80.0543H80.052H80.0497H80.0474H80.0451H80.0428H80.0405H80.0382H80.0359H80.0336H80.0313H80.029H80.0267H80.0244H80.022H80.0197H80.0174H80.0151H80.0128H80.0104H80.0081H80.0058H80.0034H80.0011H79.9987H79.9964H79.994H79.9917H79.9893H79.987H79.9846H79.9823H79.9799H79.9776H79.9752H79.9728H79.9704H79.9681H79.9657H79.9633H79.9609H79.9585H79.9562H79.9538H79.9514H79.949H79.9466H79.9442H79.9418H79.9394H79.937H79.9346H79.9321H79.9297H79.9273H79.9249H79.9224H79.92H79.9176H79.9151H79.9127H79.9103H79.9078H79.9054H79.9029H79.9005H79.898H79.8956H79.8931H79.8906H79.8882H79.8857H79.8832H79.8807H79.8783H79.8758H79.8733H79.8708H79.8683H79.8658H79.8633H79.8608H79.8583H79.8558H79.8533H79.8508H79.8483H79.8457H79.8432H79.8407H76.6581L77.7195 103.325L85.4906 81.3574L86.0211 79.8577H87.6118H98.261C98.6372 79.8577 99.202 79.6907 99.7562 79.3016C100.313 78.9107 100.625 78.4613 100.725 78.1503L100.734 78.1231L100.743 78.0962L109.09 54.3469L109.093 54.3397L109.095 54.3325C109.633 52.8342 109.395 51.837 109.024 51.2857C108.66 50.747 107.89 50.2181 106.464 50.2181H93.2348L81.3875 83.8935L81.3842 83.9028L81.3809 83.9122L74.1854 103.802L73.4951 105.71L71.526 105.22C53.8163 100.811 40.75 84.4628 40.75 65.0379C40.75 46.2401 53.054 30.2059 70.0077 25.3223L74.1989 24.115L72.7533 28.2301L65.5579 48.7138L65.556 48.7191L54.5303 79.8577H57.8138L67.5015 52.4143L68.0313 50.9133H69.6231H75.6673H78.8477L77.789 53.9122L68.6301 79.8577H71.9147L80.884 54.3466L80.8865 54.3396L80.8891 54.3325C81.4271 52.8342 81.1893 51.837 80.8175 51.2857C80.4541 50.747 79.6837 50.2181 78.2577 50.2181H71.494H68.3114L69.3728 47.2178L77.1439 25.2497Z" fill="#0096D6" stroke="white" stroke-width="4.5"/>
<path d="M103.091 50.8493H106.264L105.214 53.8438L96.8358 77.7415L96.3079 79.2471H94.7125H88.748H85.5749L86.6248 76.2526L95.0034 52.3549L95.5313 50.8493H97.1267H103.091Z" fill="#0096D6" stroke="white" stroke-width="4.5"/>
</g>
<defs>
<clipPath id="clip0_412_29">
<rect width="162" height="130" fill="white"/>
</clipPath>
</defs>
</svg>
