<svg width="140" height="41" viewBox="0 0 140 41" fill="none" xmlns="http://www.w3.org/2000/svg">
<g clip-path="url(#clip0_200_144)">
<path d="M140 0H0V41H140V0Z" fill="#E60012"/>
<path d="M61.0271 13.3627C58.8969 13.3627 56.4624 14.3936 54.9409 16.4554V13.775H49.7676V32.7438H54.9409V21.9192C54.9409 19.9605 56.4624 17.8987 59.2012 17.8987C61.3314 17.8987 63.563 19.4451 63.563 21.9192V32.7438H68.7363V20.8883C68.6348 16.5585 65.5917 13.3627 61.0271 13.3627Z" fill="white"/>
<path d="M105.212 13.683L100.546 26.6725L95.8794 13.683H89.9961L97.7053 32.7549H103.386L111.095 13.683H105.212Z" fill="white"/>
<path d="M34.4104 19.4204C35.3234 18.1833 36.642 17.5648 38.3665 17.5648C40.1923 17.5648 41.6124 18.5957 42.3225 20.2451L33.2946 24.0595C33.0917 21.9977 33.5989 20.4513 34.4104 19.4204ZM44.2498 26.843C42.1196 28.4924 40.8009 28.9048 38.8736 28.9048C37.0478 28.9048 35.7291 28.3893 34.7147 27.3584L47.9015 21.7915C47.5972 19.7297 46.8872 17.874 45.6699 16.4308C43.9455 14.3689 41.4096 13.338 38.265 13.338C32.5846 13.338 28.3242 17.5648 28.3242 23.1317C28.3242 28.9048 32.5846 33.0284 38.8736 33.0284C42.3225 33.0284 45.8728 31.379 47.5972 29.4203L44.2498 26.843Z" fill="white"/>
<path d="M27.86 27.9253H16.1948V8.02869H11.0215V32.7706H27.9614V27.9253H27.86Z" fill="white"/>
<path d="M120.329 17.8432C117.489 17.8432 115.359 20.0081 115.359 23.2039C115.359 26.1936 117.591 28.5647 120.431 28.5647C123.271 28.5647 125.401 26.2967 125.401 23.2039C125.401 20.2143 123.17 17.8432 120.329 17.8432ZM120.329 32.9976C114.75 32.9976 110.287 28.7709 110.287 23.2039C110.287 17.637 114.75 13.4103 120.431 13.4103C126.01 13.4103 130.473 17.637 130.473 23.2039C130.473 28.6678 126.01 32.9976 120.329 32.9976Z" fill="white"/>
<path d="M80.7102 17.8432C77.87 17.8432 75.7398 20.0081 75.7398 23.2039C75.7398 26.1936 77.9714 28.5647 80.8117 28.5647C83.6519 28.5647 85.7821 26.2967 85.7821 23.2039C85.7821 20.2143 83.5504 17.8432 80.7102 17.8432ZM80.7102 32.9976C75.1312 32.9976 70.668 28.7709 70.668 23.2039C70.668 17.637 75.1312 13.4103 80.8117 13.4103C86.3907 13.4103 90.8539 17.637 90.8539 23.2039C90.8539 28.6678 86.3907 32.9976 80.7102 32.9976Z" fill="white"/>
</g>
<defs>
<clipPath id="clip0_200_144">
<rect width="140" height="41" fill="white"/>
</clipPath>
</defs>
</svg>
