<svg wwidth="164" height="151" viewBox="0 0 164 151" fill="none" xmlns="http://www.w3.org/2000/svg">
<circle cx="69" cy="69" r="69" fill="#4988D3"/>
<g clip-path="url(#clip0_0_1)">
<path d="M110.816 57.8358H104.63C103.029 53.2439 100.555 48.98 97.3169 45.3356L100.373 39.9784C100.955 38.9944 101.137 37.8282 100.81 36.7349C100.519 35.6051 99.7911 34.6576 98.7723 34.1109L84 25.5831C81.9624 24.4898 79.4155 25.1822 78.2148 27.1866L75.0857 32.7261C70.7559 31.815 66.3169 31.815 62.0235 32.7261L58.8944 27.1137C57.73 25.1093 55.1831 24.4169 53.1092 25.5102L38.3369 34.0016C37.3181 34.5483 36.5904 35.4958 36.2993 36.5891C36.0082 37.6824 36.1538 38.8851 36.7359 39.869L39.865 45.4814C36.7723 49.1258 34.4073 53.3168 32.8063 57.7994H26.257C23.9284 57.7994 22 59.6944 22 62.0633V79.0825C22 80.2123 22.4366 81.3056 23.2371 82.0709C24.0376 82.8362 25.1291 83.31 26.2207 83.31H32.77C34.3709 87.7926 36.7359 91.9471 39.8286 95.5551L36.6995 101.167C36.1174 102.115 35.9718 103.281 36.2265 104.374C36.5176 105.468 37.2453 106.379 38.2277 106.926L53.0728 115.417C53.6913 115.818 54.3826 116.036 55.1103 116C56.6749 116.036 58.1303 115.162 58.858 113.777L61.9871 108.237C66.3169 109.076 70.7559 109.076 75.0493 108.237L78.1784 113.777C78.7606 114.761 79.6702 115.49 80.7253 115.818C81.8169 116.146 82.9812 116 83.9636 115.38L98.8087 106.889C100.81 105.723 101.501 103.135 100.337 101.095L97.2805 95.6644C100.482 92.0565 102.957 87.829 104.594 83.2371H110.779C111.907 83.2371 112.999 82.7998 113.763 81.998C114.527 81.1962 115 80.1029 115 79.0096V61.9904C115 60.8606 114.563 59.7673 113.763 59.002C112.962 58.2367 111.944 57.8358 110.816 57.8358ZM68.3908 91.8378C62.7512 91.8014 57.3662 89.5054 53.4366 85.4966C49.4707 81.4878 47.2876 76.0577 47.3239 70.4089C47.3603 64.7601 49.6526 59.3664 53.6549 55.4305C57.6573 51.4582 63.0786 49.2715 68.7183 49.308C74.358 49.3444 79.743 51.6404 83.6725 55.6492C87.6385 59.658 89.8216 65.0881 89.7852 70.7369C89.7488 76.3128 87.493 81.67 83.5634 85.6059C79.6338 89.5419 74.2852 91.8014 68.7183 91.8378H68.3908ZM81.2711 70.7369C81.2347 74.1262 79.8521 77.3332 77.4143 79.702C74.9765 82.0709 71.7383 83.3464 68.3545 83.31C64.9707 83.2735 61.7688 81.8887 59.4038 79.4469C57.0387 77.0052 55.7653 73.7617 55.8016 70.3725C55.838 66.9832 57.2207 63.7761 59.6585 61.4073C62.0599 59.0385 65.3345 57.7629 68.7183 57.7994C72.1021 57.8722 75.304 59.2571 77.6326 61.6624C79.9977 64.1406 81.3075 67.3841 81.2711 70.7369Z" fill="white"/>
</g>
<defs>
<clipPath id="clip0_0_1">
<rect width="93" height="91" fill="white" transform="translate(22 25)"/>
</clipPath>
</defs>
</svg>
