<svg width="164" height="151" viewBox="0 0 164 151" fill="none" xmlns="http://www.w3.org/2000/svg">
<circle cx="69" cy="69" r="69" fill="#4988D3"/>
<g clip-path="url(#clip0_0_1)">
<path fill-rule="evenodd" clip-rule="evenodd" d="M82.1616 113.667C82.1616 112.852 82.8284 112.183 83.6411 112.183C84.4539 112.183 85.1207 112.852 85.1207 113.667V113.918C85.1207 114.733 84.4539 115.402 83.6411 115.402C82.8284 115.402 82.1616 114.733 82.1616 113.918V113.667ZM90.8514 106.31H85.0999V109.195C85.0999 110.01 84.433 110.678 83.6203 110.678C82.8076 110.678 82.1407 110.01 82.1407 109.195V106.31H76.3892V112.852C76.4309 115.423 77.8062 117.785 80.036 119.059C82.2658 120.334 84.9957 120.334 87.2046 119.059C89.4344 117.785 90.8097 115.423 90.8514 112.852V106.31ZM76.41 60.5177H90.8514V45.2814C90.8514 44.7379 91.1432 44.2363 91.6225 43.9855C96.5821 41.2685 99.833 36.2315 100.291 30.5884C100.729 24.9453 98.2909 19.4486 93.8106 16V27.2444C93.8106 27.7669 93.5396 28.2685 93.0812 28.5193L88.7258 31.0482L84.3913 33.5563C83.9329 33.828 83.3702 33.828 82.9118 33.5772L78.6398 31.1109C78.6189 31.09 78.5773 31.09 78.5564 31.0691L74.2844 28.6029C73.7843 28.3521 73.4509 27.8296 73.4509 27.2653V16C71.7629 17.2958 70.3459 18.9051 69.2622 20.7444C66.97 24.6318 66.324 29.2926 67.5118 33.6608C68.6996 38.0289 71.5754 41.7283 75.5348 43.9228C76.0766 44.1527 76.41 44.6961 76.41 45.2814V60.5177ZM44.1721 73.246C46.4853 73.2878 49.2985 73.1624 52.6953 69.2122C55.1334 66.3071 56.8214 62.8585 57.6133 59.1592C58.7594 54.9791 59.4888 52.2621 69.5748 52.701H73.4717V60.5177H70.2625C69.4498 60.5177 68.7829 61.1865 68.7829 62.0016C68.7829 62.8167 69.4498 63.4855 70.2625 63.4855H93.2062C93.9564 63.4437 94.7066 63.6318 95.3318 64.0498C95.9778 64.4469 96.4571 65.0531 96.7488 65.7428C97.1656 66.8087 97.1656 67.9791 96.7488 69.045C96.4571 69.7347 95.9778 70.3408 95.3318 70.7379C94.6858 71.135 93.9564 71.3441 93.2062 71.2813H86.767C85.9543 71.2813 85.2874 71.9502 85.2874 72.7653C85.2874 73.5804 85.9543 74.2492 86.767 74.2492H97.5616C98.2076 74.2074 98.8536 74.3746 99.4162 74.709C99.9789 75.0434 100.396 75.5659 100.667 76.1511C100.854 76.6318 100.958 77.1543 100.937 77.6559C100.917 78.1785 100.792 78.701 100.562 79.1608C100.208 79.8087 99.6663 80.3521 98.9995 80.7074C98.3534 81.0627 97.6032 81.2299 96.853 81.1672C96.7072 81.1672 96.5613 81.1463 96.4154 81.1463H86.767C85.9543 81.1463 85.2874 81.8151 85.2874 82.6302C85.2874 83.4453 85.9543 84.1141 86.767 84.1141H96.4154C97.3115 84.0723 98.1867 84.3023 98.9369 84.783C99.6871 85.2637 100.271 85.9743 100.604 86.7894C101.083 88.0434 101.083 89.4437 100.604 90.6768C100.271 91.5129 99.6871 92.2235 98.9369 92.6833C98.1867 93.164 97.2907 93.3939 96.4154 93.3521H86.767C85.9543 93.3521 85.2874 94.0209 85.2874 94.836C85.2874 95.6511 85.9543 96.3199 86.767 96.3199H92.2893C92.9562 96.2781 93.623 96.4453 94.1857 96.8215C94.7483 97.1768 95.1859 97.7203 95.4568 98.3264C95.8319 99.2878 95.8319 100.333 95.4568 101.294C95.2068 101.921 94.7691 102.444 94.1857 102.799C93.623 103.154 92.9562 103.322 92.2893 103.301H76.2433L75.0763 103.28C75.0138 103.28 74.9721 103.28 74.9096 103.28H74.8471C67.4909 103.092 60.2807 102.883 55.3835 102.402C53.3413 102.13 51.5074 101.043 50.2988 99.3923C49.4444 98.1801 48.194 97.3232 46.7562 96.9678C46.1518 96.8842 45.485 96.8215 44.7973 96.7797C44.5889 96.7588 44.3805 96.7588 44.1721 96.7588V73.246ZM31.1269 98.3055C31.1269 97.4903 31.7938 96.8215 32.6065 96.8215C33.4192 96.8215 34.0861 97.4903 34.0861 98.3055V98.4936C34.0861 99.3087 33.4192 99.9775 32.6065 99.9775C31.7938 99.9775 31.1269 99.3087 31.1269 98.4936V98.3055ZM34.0861 68.6061V90.6768C34.0861 91.492 33.4192 92.1608 32.6065 92.1608C31.7938 92.1608 31.1269 91.492 31.1269 90.6768V68.6061H24V103.092H41.213V68.6061H34.0861Z" fill="white"/>
</g>
<defs>
<clipPath id="clip0_0_1">
<rect width="77" height="104" fill="white" transform="translate(24 16)"/>
</clipPath>
</defs>
</svg>
