<svg width="21" height="27" viewBox="0 0 21 27" fill="none" xmlns="http://www.w3.org/2000/svg">
<g clip-path="url(#clip0_200_137)">
<path d="M18.704 4.12031C16.7373 1.61093 13.7344 0.186157 10.5006 0.186157C7.26681 0.186157 4.26398 1.61093 2.30389 4.12031C-0.507547 7.71432 -0.507547 12.6946 2.30389 16.2886L10.5006 26.6984L18.6974 16.2886C21.5088 12.6882 21.5088 7.71432 18.704 4.12031ZM10.5006 4.71718C13.4639 4.71718 15.8925 7.07254 15.8925 9.96058C15.8925 12.8486 13.4705 15.204 10.5006 15.204C7.53079 15.204 5.10873 12.8486 5.10873 9.96058C5.10873 7.07254 7.53739 4.71718 10.5006 4.71718Z" fill="white"/>
</g>
<defs>
<clipPath id="clip0_200_137">
<rect width="21" height="27" fill="white"/>
</clipPath>
</defs>
</svg>
