<svg width="77" height="78" viewBox="0 0 77 78" fill="none" xmlns="http://www.w3.org/2000/svg">
<g clip-path="url(#clip0_200_178)">
<path fill-rule="evenodd" clip-rule="evenodd" d="M65.7794 11.3483C58.5388 4.04675 48.9276 0.0253677 38.6732 0.00683594C17.5396 0.00683594 0.356975 17.3525 0.338598 38.6455C0.338598 45.4651 2.1028 52.0995 5.44743 57.9741L0.0078125 78.0068L20.3329 72.6326C25.9379 75.7089 32.2412 77.3397 38.6548 77.3397H38.6732C59.7885 77.3397 76.9894 59.994 77.0078 38.6825C77.0078 28.3604 73.02 18.6497 65.7794 11.3483ZM38.6732 70.8165C32.9396 70.8165 27.3345 69.2599 22.4462 66.3319L21.2885 65.6277L9.23311 68.8151L12.4491 56.9548L11.6956 55.7317C8.49803 50.617 6.82571 44.7053 6.82571 38.6455C6.82571 20.9291 21.1231 6.53 38.6916 6.53C47.2002 6.53 55.1942 9.88424 61.2219 15.9441C67.2312 22.0225 70.5391 30.0838 70.5391 38.664C70.5207 56.3989 56.2233 70.8165 38.6732 70.8165ZM56.1498 46.7438C55.1942 46.262 50.4897 43.927 49.6076 43.5934C48.7255 43.2784 48.0823 43.1116 47.4575 44.0753C46.8143 45.0389 44.9765 47.2257 44.4252 47.8557C43.8739 48.5043 43.3042 48.5785 42.3486 48.0966C41.393 47.6148 38.3057 46.5956 34.6486 43.2969C31.8002 40.7396 29.889 37.5706 29.3193 36.607C28.768 35.6433 29.2641 35.1244 29.7419 34.6426C30.1646 34.2164 30.6975 33.5122 31.1754 32.9562C31.6532 32.4003 31.8186 31.9926 32.131 31.344C32.4434 30.6954 32.2964 30.1394 32.0575 29.6576C31.8186 29.1758 29.9073 24.4131 29.0987 22.4858C28.3269 20.5956 27.5367 20.855 26.9486 20.8365C26.3973 20.7994 25.7541 20.7994 25.1109 20.7994C24.4677 20.7994 23.4386 21.0403 22.5565 22.004C21.6744 22.9676 19.2119 25.3026 19.2119 30.0653C19.2119 34.8279 22.6484 39.4053 23.1262 40.0539C23.604 40.7025 29.8706 50.4502 39.4818 54.6383C41.7606 55.6391 43.5431 56.2321 44.9398 56.6768C47.2369 57.4181 49.3135 57.3069 50.9675 57.066C52.8052 56.788 56.6276 54.731 57.4362 52.4701C58.2264 50.2093 58.2264 48.282 57.9875 47.8743C57.7486 47.4666 57.1054 47.2257 56.1498 46.7438Z" fill="#25D366"/>
</g>
<defs>
<clipPath id="clip0_200_178">
<rect width="77" height="78" fill="white"/>
</clipPath>
</defs>
</svg>
