<svg xmlns="http://www.w3.org/2000/svg" xmlns:xlink="http://www.w3.org/1999/xlink" viewBox="0 0 849.44 849.78"><defs><style>.cls-1{fill:url(#linear-gradient);}.cls-2{fill:#fff;}</style><linearGradient id="linear-gradient" x1="1708.54" y1="394.95" x2="1709.77" y2="393.92" gradientTransform="matrix(512, 0, 0, -512, -874709.37, 202423.48)" gradientUnits="userSpaceOnUse"><stop offset="0" stop-color="#8be93c"/><stop offset="1" stop-color="#09a131"/></linearGradient></defs><g id="Layer_2" data-name="Layer 2"><g id="Capa_1" data-name="Capa 1"><path id="Path_1" data-name="Path 1" class="cls-1" d="M424.82,30.78h-.2c-217.21,0-393.84,176.68-393.84,393.94a391,391,0,0,0,75,230.9L56.69,802l151.42-48.4a390.54,390.54,0,0,0,216.71,65.1c217.21,0,393.84-176.73,393.84-393.94S642,30.78,424.82,30.78"/><path class="cls-2" d="M424.82,0h-.2C190.48,0,0,190.53,0,424.67A418.85,418.85,0,0,0,71.66,660.55L8.18,849.78l195.55-62.51a419.76,419.76,0,0,0,220.21,62.17h.88c234.14,0,424.62-190.53,424.62-424.72S659,0,424.82,0Zm-.07,787.89H424a358.66,358.66,0,0,1-198.88-60l-12.31-8.17L105.19,754.15,140,650.34l-9.36-12.85a357.94,357.94,0,0,1-69.1-212.77c0-200.25,162.88-363.17,363.07-363.17h.2c200.19,0,363.07,162.92,363.07,363.17S625,787.89,424.75,787.89Z"/><path class="cls-2" d="M660.78,532.41c-2.8-4.87-10.43-7.63-22-13.44s-67.86-33.58-78.49-37.28c-10.44-3.94-20.39-2.56-28.27,8.57-11.08,15.52-22,31.27-30.78,40.78-6.94,7.39-18.27,8.32-27.77,4.38-12.75-5.32-48.4-17.82-92.38-57C347,448.11,323.87,410.34,317.17,399c-6.69-11.57-.69-18.27,4.63-24.52,5.81-7.19,11.33-12.31,17.14-19s9.06-10.2,12.75-18.07c3.94-7.63,1.14-15.51-1.67-21.33s-25.9-62.34-35.41-85.23c-7.62-18.27-13.44-19-25-19.46-3.94-.19-8.32-.44-13.2-.44-15.07,0-30.78,4.44-40.28,14.13-11.57,11.82-40.28,39.34-40.28,95.87s41.22,111.19,46.78,118.83C248.43,447.42,323,565.06,438.75,613c90.51,37.52,117.4,34,138,29.64,30.09-6.5,67.81-28.76,77.31-55.59h0C663.54,560.18,663.54,537.29,660.78,532.41Z"/></g></g></svg>