<svg width="214" height="296" viewBox="0 0 214 296" fill="none" xmlns="http://www.w3.org/2000/svg">
<g clip-path="url(#clip0_200_195)">
<path d="M97.4326 195.432C95.0778 194.079 92.7818 193.903 90.9567 194.903C89.1317 195.961 88.1309 197.961 88.1309 200.666C88.1309 205.606 91.4866 211.429 95.7842 213.84C97.1383 214.604 98.4335 215.016 99.6698 215.016C100.553 215.016 101.495 214.84 102.26 214.31C104.085 213.252 105.086 211.252 105.086 208.547C105.027 203.724 101.671 197.902 97.4326 195.432Z" fill="white"/>
<path d="M68.6449 75.6909C59.2254 70.2802 50.9833 67.3396 43.3888 66.6927C42.5646 66.6338 41.7992 66.8691 41.2105 67.3984C40.5629 67.9865 40.2686 68.8687 40.1508 69.9273C40.0919 82.9835 46.2146 118.271 64.465 138.384C65.1714 139.149 65.9368 139.796 66.761 140.325C67.6441 140.854 68.586 141.09 69.4102 141.148H70.4699C75.0031 141.148 79.1241 139.502 82.7153 136.091C92.0171 127.328 95.3139 109.625 95.3728 99.9213C95.3728 98.451 94.6664 96.7455 93.4889 95.6281C86.1299 87.5121 78.0056 81.0427 68.6449 75.6909ZM80.5371 133.738C77.358 136.738 73.7079 138.09 69.6457 137.914C69.3514 137.914 68.8804 137.737 68.4094 137.502C67.8796 137.208 67.3497 136.738 66.8787 136.208C50.2179 117.918 43.3888 84.0422 43.3888 69.9861C50.3946 70.6331 58.1068 73.456 66.9376 78.5138C75.945 83.7481 83.8928 90.041 91.134 97.8041C91.7816 98.5099 92.076 99.392 92.076 99.9213C92.1937 108.684 89.0146 125.74 80.5371 133.738Z" fill="white"/>
<path d="M85.1885 100.333C84.07 99.6861 82.8925 99.6273 81.9506 100.157L64.9365 109.802L57.9308 97.6277C57.342 96.6867 56.5767 95.8045 55.7525 95.334C54.6339 94.6871 53.4565 94.6283 52.5145 95.1576C51.8669 95.5693 51.3371 96.2162 51.1605 96.9807C50.8661 98.2158 51.1016 99.7449 51.9258 101.098L59.6969 114.624C60.7566 116.389 62.0518 117.8 63.5825 118.623C64.5244 119.212 65.5253 119.447 66.4672 119.447C67.1737 119.447 67.8801 119.27 68.4689 118.918L86.837 108.449C87.4845 108.037 88.0144 107.39 88.191 106.626C88.4854 105.391 88.2499 103.862 87.4257 102.509C86.8958 101.686 86.0127 100.862 85.1885 100.333Z" fill="white"/>
<path d="M168.375 55.9888C168.316 55.93 168.257 55.93 168.139 55.8712C160.722 51.6956 153.657 51.1075 148.182 54.2833C142.648 57.5179 139.528 64.1049 139.469 72.9266V84.1597C139.469 84.689 139.704 85.2183 140.175 85.5124C140.646 85.8064 141.117 85.9241 141.647 85.6888C144.708 84.5126 148.771 85.2183 152.95 87.6884L180.326 103.45C184.682 105.979 189.039 110.272 192.454 115.506C192.748 115.977 193.278 116.212 193.808 116.212C193.925 116.212 194.102 116.212 194.279 116.153C194.985 115.977 195.456 115.33 195.456 114.624L195.515 102.921C195.515 94.5106 192.748 84.9831 187.567 76.1613C182.445 67.3395 175.616 60.1645 168.375 55.9888ZM190.923 92.7462L165.961 78.3373C161.781 75.9849 157.66 74.9851 154.128 75.5732V66.3985C154.128 62.1641 154.952 58.4001 156.483 55.5183C159.544 55.636 163.076 56.6946 166.609 58.753C166.609 58.753 166.668 58.753 166.668 58.8118C166.727 58.8118 166.727 58.8706 166.785 58.8706C173.556 62.811 179.914 69.4567 184.741 77.808C187.567 82.6306 189.687 87.7472 190.923 92.7462Z" fill="white"/>
<path d="M179.736 41.1096L179.501 40.992C170.081 35.6401 161.192 34.9344 154.363 38.8748L143.059 45.4617C136.642 49.1669 132.874 56.5772 132.286 66.4575L18.7213 0.82353C16.9552 -0.117459 15.2479 -0.293895 13.8349 0.529471L2.5315 7.1164C1.17744 7.88095 0.412105 9.46887 0.412105 11.4097L0.0588721 131.503L0 162.968C0 166.438 2.29601 170.496 5.35736 172.26L88.0726 219.956V225.25L64.8182 211.84C62.7576 210.664 60.6971 210.547 59.1664 211.429L47.7453 218.074C47.5098 218.192 47.2743 218.369 47.0388 218.604L39.3854 225.367C38.6201 226.014 38.2668 227.014 38.4435 228.249C38.6201 230.072 39.7975 231.895 41.3282 232.836L149.947 295.471C150.595 295.883 151.183 296 151.713 296C152.243 296 152.655 295.883 153.067 295.589L164.371 289.002C165.902 288.119 166.255 286.002 165.195 283.767L157.542 268.182C156.305 265.653 154.48 263.536 152.361 262.419L116.155 241.599V236.247L186.036 276.533C186.978 277.122 187.979 277.357 188.862 277.357C189.568 277.357 190.275 277.18 190.863 276.828L202.167 270.241C203.521 269.476 204.286 267.888 204.286 265.947L204.58 152.205C210.527 147.912 213.765 140.031 213.765 129.857L213.823 100.392C214.177 78.6316 198.693 52.0486 179.736 41.1096ZM166.431 157.557L166.667 157.675C171.612 160.498 176.498 162.027 180.973 162.262L180.796 220.015C180.796 220.78 180.62 221.368 180.266 221.544C179.913 221.721 179.324 221.603 178.677 221.25L16.1898 127.563C14.1293 126.387 12.4809 123.446 12.4809 121.094L12.7164 27.1712C12.7164 26.4067 12.893 25.8186 13.2462 25.6421C13.364 25.5833 13.4817 25.5833 13.6583 25.5833C13.9527 25.5833 14.4237 25.7009 14.8946 25.995L132.227 93.6874V98.2748C132.05 119.976 147.475 146.618 166.431 157.557ZM17.2495 175.495L6.88803 169.496C4.82751 168.32 3.17909 165.379 3.17909 163.027L3.23796 134.326L16.0721 141.737L35.2055 169.731C35.2644 169.79 35.3232 169.908 35.3232 169.966L17.2495 175.495ZM60.6971 214.252C61.2858 213.958 62.1689 214.075 63.1697 214.663L88.0137 229.013V238.423L53.4558 218.486L60.6971 214.252ZM139.468 271.828C140.94 272.652 142.353 274.357 143.354 276.239L150.948 291.883C151.066 292.119 151.125 292.354 151.183 292.53L42.8589 230.072C41.9758 229.543 41.5048 228.19 41.5637 227.778L49.1582 221.074C49.688 220.603 50.6889 220.662 51.8074 221.309L139.468 271.828ZM91.2517 240.305L91.3106 221.897L101.79 227.955L101.731 246.363L91.2517 240.305ZM140.292 232.836L155.599 255.302L36.0886 186.316L51.984 181.494C52.6905 181.317 53.2792 180.729 53.5147 180.023C53.9268 178.965 53.6325 177.73 52.8671 176.553L37.5015 154.028L157.071 222.956L141.175 227.778C140.469 227.955 139.88 228.543 139.645 229.249C139.291 230.425 139.527 231.66 140.292 232.836ZM189.921 272.534C189.921 273.299 189.745 273.887 189.391 274.063C189.038 274.24 188.45 274.122 187.802 273.769L177.205 267.653L158.072 239.658C158.013 239.6 157.954 239.482 157.954 239.423L176.027 233.895L190.157 242.07L189.921 272.534ZM190.039 238.306L3.29684 130.621L3.5912 11.4097C3.5912 10.6451 3.76781 10.057 4.12105 9.88055C4.35653 9.76293 4.76864 9.76293 5.18074 9.93937H5.23961C5.35736 9.99818 5.53398 10.057 5.76946 10.1746L132.168 83.0425V89.8058L16.4842 23.2308C14.718 22.2899 13.0107 22.1134 11.6567 22.9368C10.3026 23.7602 9.53728 25.2893 9.53728 27.23L9.30179 121.153C9.30179 124.622 11.5978 128.68 14.6591 130.445L177.146 224.073C178.088 224.661 179.089 224.897 179.972 224.897C180.678 224.897 181.385 224.72 181.974 224.367C183.328 223.603 184.093 222.015 184.093 220.074L184.27 162.262C186.33 162.086 188.332 161.556 190.216 160.733L190.039 238.306ZM199.4 136.502C199.4 146.324 196.103 153.676 190.216 157.087C184.446 160.439 176.616 159.674 168.315 154.969L168.08 154.852C150.006 144.442 135.288 119.035 135.347 98.1571L135.406 68.6924C135.406 58.8708 138.703 51.5193 144.59 48.1083C146.945 46.7556 149.653 46.0498 152.655 46.0498C156.894 46.0498 161.604 47.4613 166.49 50.2255L166.726 50.3431C184.799 60.7528 199.517 86.1595 199.459 107.038L199.4 136.502Z" fill="white"/>
<path d="M150.771 120.741C149.299 119.917 147.827 119.8 146.591 120.506C145.767 120.976 145.178 121.799 144.943 122.799C144.472 124.446 144.884 126.681 146.061 128.563C146.885 129.974 148.004 131.15 149.24 131.856C150.065 132.327 150.889 132.562 151.713 132.562C152.361 132.562 152.949 132.444 153.479 132.091C154.303 131.621 154.892 130.798 155.128 129.798C155.598 128.151 155.186 125.916 154.009 124.034C153.067 122.564 151.948 121.447 150.771 120.741Z" fill="white"/>
<path d="M166.078 136.914C164.606 136.091 163.075 135.973 161.898 136.679C160.72 137.384 160.014 138.737 160.014 140.384C160.014 143.266 161.956 146.618 164.429 148.029C165.253 148.5 166.078 148.735 166.902 148.735C167.549 148.735 168.138 148.618 168.668 148.265C169.845 147.559 170.552 146.206 170.552 144.56C170.493 141.737 168.609 138.325 166.078 136.914Z" fill="white"/>
<path d="M172.612 114.507C172.612 110.331 169.786 105.391 166.136 103.274C166.018 103.215 165.96 103.156 165.842 103.097C163.899 102.039 161.956 101.98 160.484 102.921C158.954 103.803 158.13 105.626 158.012 107.802C157.953 109.743 158.542 111.86 159.601 113.86C160.131 114.801 160.367 115.918 160.308 116.683L159.248 126.269C159.13 127.622 159.955 129.151 161.132 129.857L167.726 133.679C168.197 133.915 168.55 134.091 169.021 134.091C169.433 134.091 169.845 133.973 170.198 133.797C170.905 133.326 171.317 132.444 171.258 131.503L170.316 120.682C170.257 119.859 170.434 119.447 170.493 119.447C171.847 118.388 172.612 116.683 172.612 114.507Z" fill="white"/>
<path d="M181.443 138.502C179.971 137.679 178.499 137.561 177.263 138.267C176.439 138.737 175.85 139.56 175.615 140.56C175.144 142.207 175.556 144.442 176.733 146.324C177.557 147.735 178.676 148.912 179.912 149.617C180.736 150.088 181.561 150.323 182.385 150.323C183.032 150.323 183.621 150.205 184.151 149.853C184.975 149.382 185.564 148.559 185.799 147.559C186.27 145.912 185.858 143.677 184.681 141.795C183.857 140.325 182.679 139.208 181.443 138.502Z" fill="white"/>
<path d="M187.919 124.505C186.448 123.681 184.917 123.564 183.739 124.269C182.562 124.975 181.855 126.328 181.855 127.975C181.855 130.856 183.798 134.209 186.271 135.62C187.095 136.091 187.919 136.326 188.744 136.326C189.391 136.326 189.98 136.208 190.51 135.855C191.687 135.15 192.394 133.797 192.394 132.15C192.335 129.327 190.392 125.916 187.919 124.505Z" fill="white"/>
<path d="M146.945 110.802C148.122 110.096 148.829 108.743 148.829 107.096C148.829 104.215 146.886 100.862 144.413 99.4509C142.942 98.6275 141.411 98.5099 140.234 99.2156C139.056 99.9213 138.35 101.274 138.35 102.921C138.35 105.803 140.292 109.155 142.765 110.566C143.589 111.037 144.413 111.272 145.238 111.272C145.826 111.272 146.415 111.154 146.945 110.802Z" fill="white"/>
</g>
<defs>
<clipPath id="clip0_200_195">
<rect width="214" height="296" fill="white"/>
</clipPath>
</defs>
</svg>
